<svg viewBox="0 0 61.3772 59.0815" fill="none" xmlns="http://www.w3.org/2000/svg">
<g id="bitcoin-03">
<g id="bitcoin-outline-3">
<path d="M4.05675 29.1602C4.05675 23.0045 6.03189 17.3101 9.38299 12.6762C-5.83735 28.3992 1.77355 49.7096 15.4731 58.0815C15.4731 58.0815 17.7437 54.2761 18.4803 53.7486C9.87415 48.9303 4.05675 39.7246 4.05675 29.1602Z" fill="#E8C375"/>
<path d="M32.217 6.4947C19.6991 6.4947 9.55141 16.6424 9.55141 29.1603C9.55141 38.5678 15.2828 46.6367 23.4443 50.0657C29.0094 46.7127 34.7863 46.0948 44.0637 48.4871C50.554 44.5003 54.8825 37.3358 54.8825 29.1603C54.8825 16.6424 44.7348 6.4947 32.217 6.4947Z" fill="#FBA43D"/>
<path d="M9.55141 29.1603C9.55141 16.6424 19.6991 6.4947 32.217 6.4947C44.7348 6.4947 54.8825 16.6424 54.8825 29.1603C54.8825 37.3358 50.554 44.5003 44.0637 48.4871C46.0754 49.0058 48.2516 49.6661 50.6259 50.4707C56.5982 45.307 60.3772 37.6749 60.3772 29.1602C60.3772 13.6078 47.7695 1 32.217 1C22.8202 1 14.4985 5.60251 9.38299 12.6762C6.03189 17.3101 4.05675 23.0045 4.05675 29.1602C4.05675 39.7246 9.87415 48.9303 18.4803 53.7486C20.1731 52.2867 21.7995 51.0567 23.4443 50.0657C15.2828 46.6367 9.55141 38.5678 9.55141 29.1603Z" fill="#E8C375"/>
<path d="M15.4731 58.0815C1.77355 49.7096 -5.83735 28.3992 9.38299 12.6762M15.4731 58.0815H1.77355M15.4731 58.0815C15.4731 58.0815 17.7437 54.2761 18.4803 53.7486M9.38299 12.6762C6.03189 17.3101 4.05675 23.0045 4.05675 29.1602C4.05675 39.7246 9.87415 48.9303 18.4803 53.7486M9.38299 12.6762C14.4985 5.60251 22.8202 1 32.217 1C47.7695 1 60.3772 13.6078 60.3772 29.1602C60.3772 37.6749 56.5982 45.307 50.6259 50.4707M18.4803 53.7486C20.1731 52.2867 21.7995 51.0567 23.4443 50.0657M50.6259 50.4707L58.8425 53.7486M50.6259 50.4707C48.2516 49.6661 46.0754 49.0058 44.0637 48.4871M23.4443 50.0657C15.2828 46.6367 9.55141 38.5678 9.55141 29.1603C9.55141 16.6424 19.6991 6.4947 32.217 6.4947C44.7348 6.4947 54.8825 16.6424 54.8825 29.1603C54.8825 37.3358 50.554 44.5003 44.0637 48.4871M23.4443 50.0657C29.0094 46.7127 34.7863 46.0948 44.0637 48.4871" stroke="black" stroke-width="2"/>
</g>
<path id="currency_bitcoin-03" d="M31.2695 42.4039L30.5377 39.6728L26.441 40.7705L25.7091 38.0393L28.4403 37.3075L24.7812 23.6517L22.0501 24.3835L21.3183 21.6524L25.415 20.5546L24.6832 17.8235L27.4144 17.0917L28.1462 19.8228L30.8773 19.091L30.1455 16.3599L32.8767 15.6281L33.6542 18.5299C34.9231 18.5314 36.0741 18.9122 37.1071 19.6721C38.1401 20.432 38.8273 21.4493 39.1689 22.7238C39.3457 23.3838 39.4011 24.0459 39.3352 24.71C39.2692 25.3741 39.0954 26.0001 38.8138 26.5878C39.7384 26.8523 40.5552 27.3287 41.2641 28.0169C41.9729 28.7051 42.4615 29.55 42.7299 30.5514C43.1324 32.0535 42.9421 33.4828 42.159 34.8391C41.3759 36.1954 40.2333 37.0748 38.7312 37.4773L39.463 40.2085L36.7318 40.9403L36 38.2091L33.2689 38.9409L34.0007 41.6721L31.2695 42.4039ZM28.976 28.3822L34.4383 26.9186C35.1894 26.7173 35.7607 26.2776 36.1523 25.5995C36.5438 24.9213 36.6389 24.2067 36.4377 23.4556C36.2364 22.7046 35.7967 22.1332 35.1186 21.7417C34.4404 21.3502 33.7258 21.255 32.9747 21.4563L27.5124 22.9199L28.976 28.3822ZM31.1715 36.5757L37.9994 34.7462C38.7504 34.5449 39.3217 34.1052 39.7133 33.427C40.1048 32.7489 40.2 32.0343 39.9987 31.2832C39.7975 30.5321 39.3578 29.9608 38.6796 29.5693C38.0014 29.1777 37.2868 29.0826 36.5357 29.2838L29.7078 31.1134L31.1715 36.5757Z" fill="black"/>
<path id="bitcoin-bubble-03" d="M46.5856 26.3057C43.3528 29.3365 45.3848 22.4876 42.1322 19.4384C38.8796 16.3891 31.5742 18.2941 34.807 15.2633C38.0399 12.2325 43.2973 12.2475 46.5499 15.2968C49.8024 18.3461 49.8184 23.2749 46.5856 26.3057Z" fill="white" fill-opacity="0.21"/>
</g>
</svg>
