<svg viewBox="0 0 61.3772 59.0815" fill="none" xmlns="http://www.w3.org/2000/svg">
<g id="bitcoin-02">
<g id="bitcoin-outline-02">
<path d="M4.05675 29.1602C4.05675 23.0045 6.03189 17.3101 9.38299 12.6762C-5.83735 28.3992 1.77355 49.7096 15.4731 58.0815C15.4731 58.0815 17.7437 54.2761 18.4803 53.7486C9.87415 48.9303 4.05675 39.7246 4.05675 29.1602Z" fill="#E8C375"/>
<path d="M32.217 6.4947C19.6991 6.4947 9.55141 16.6424 9.55141 29.1603C9.55141 38.5678 15.2828 46.6367 23.4443 50.0657C29.0094 46.7127 34.7863 46.0948 44.0637 48.4871C50.554 44.5003 54.8825 37.3358 54.8825 29.1603C54.8825 16.6424 44.7348 6.4947 32.217 6.4947Z" fill="#FBA43D"/>
<path d="M9.55141 29.1603C9.55141 16.6424 19.6991 6.4947 32.217 6.4947C44.7348 6.4947 54.8825 16.6424 54.8825 29.1603C54.8825 37.3358 50.554 44.5003 44.0637 48.4871C46.0754 49.0058 48.2516 49.6661 50.6259 50.4707C56.5982 45.307 60.3772 37.6749 60.3772 29.1602C60.3772 13.6078 47.7695 1 32.217 1C22.8202 1 14.4985 5.60251 9.38299 12.6762C6.03189 17.3101 4.05675 23.0045 4.05675 29.1602C4.05675 39.7246 9.87415 48.9303 18.4803 53.7486C20.1731 52.2867 21.7995 51.0567 23.4443 50.0657C15.2828 46.6367 9.55141 38.5678 9.55141 29.1603Z" fill="#E8C375"/>
<path d="M15.4731 58.0815C1.77355 49.7096 -5.83735 28.3992 9.38299 12.6762M15.4731 58.0815H1.77355M15.4731 58.0815C15.4731 58.0815 17.7437 54.2761 18.4803 53.7486M9.38299 12.6762C6.03189 17.3101 4.05675 23.0045 4.05675 29.1602C4.05675 39.7246 9.87415 48.9303 18.4803 53.7486M9.38299 12.6762C14.4985 5.60251 22.8202 1 32.217 1C47.7695 1 60.3772 13.6078 60.3772 29.1602C60.3772 37.6749 56.5982 45.307 50.6259 50.4707M18.4803 53.7486C20.1731 52.2867 21.7995 51.0567 23.4443 50.0657M50.6259 50.4707L58.8425 53.7486M50.6259 50.4707C48.2516 49.6661 46.0754 49.0058 44.0637 48.4871M23.4443 50.0657C15.2828 46.6367 9.55141 38.5678 9.55141 29.1603C9.55141 16.6424 19.6991 6.4947 32.217 6.4947C44.7348 6.4947 54.8825 16.6424 54.8825 29.1603C54.8825 37.3358 50.554 44.5003 44.0637 48.4871M23.4443 50.0657C29.0094 46.7127 34.7863 46.0948 44.0637 48.4871" stroke="black" stroke-width="2"/>
</g>
<path id="currency_bitcoin-02" d="M31.2694 42.4039L30.5376 39.6728L26.4409 40.7705L25.7091 38.0393L28.4402 37.3075L24.7812 23.6517L22.05 24.3835L21.3182 21.6524L25.415 20.5547L24.6831 17.8235L27.4143 17.0917L28.1461 19.8228L30.8773 19.091L30.1455 16.3599L32.8766 15.6281L33.6542 18.5299C34.923 18.5314 36.074 18.9122 37.107 19.6721C38.14 20.432 38.8273 21.4493 39.1688 22.7238C39.3456 23.3838 39.4011 24.0459 39.3351 24.71C39.2691 25.3742 39.0953 26.0001 38.8137 26.5878C39.7384 26.8523 40.5551 27.3287 41.264 28.0169C41.9729 28.7051 42.4615 29.55 42.7298 30.5514C43.1323 32.0535 42.942 33.4828 42.1589 34.8391C41.3759 36.1954 40.2332 37.0748 38.7311 37.4773L39.4629 40.2085L36.7318 40.9403L36 38.2091L33.2688 38.941L34.0006 41.6721L31.2694 42.4039ZM28.976 28.3822L34.4383 26.9186C35.1894 26.7174 35.7607 26.2776 36.1522 25.5995C36.5437 24.9213 36.6389 24.2067 36.4376 23.4556C36.2364 22.7046 35.7967 22.1333 35.1185 21.7417C34.4403 21.3502 33.7257 21.255 32.9747 21.4563L27.5123 22.9199L28.976 28.3822ZM31.1714 36.5757L37.9993 34.7462C38.7504 34.5449 39.3217 34.1052 39.7132 33.4271C40.1047 32.7489 40.1999 32.0343 39.9986 31.2832C39.7974 30.5321 39.3577 29.9608 38.6795 29.5693C38.0014 29.1778 37.2867 29.0826 36.5357 29.2839L29.7078 31.1134L31.1714 36.5757Z" fill="black"/>
<path id="bitcoin-bubble-02" d="M46.5856 26.3057C43.3528 29.3365 45.3848 22.4876 42.1322 19.4384C38.8796 16.3891 31.5742 18.2941 34.807 15.2633C38.0399 12.2325 43.2973 12.2475 46.5499 15.2968C49.8024 18.3461 49.8184 23.2749 46.5856 26.3057Z" fill="white" fill-opacity="0.21"/>
</g>
</svg>
