<svg viewBox="0 0 137.711 186.026" fill="none" xmlns="http://www.w3.org/2000/svg">
<g id="Group 14">
<g id="phone-dead-body" filter="url(#filter0_d_110_74)">
<path d="M26.9861 52.4094C28.2839 42.9094 32.8215 34.6027 39.5663 29.3801L47.9396 22.8964L63.698 10.6943C72.2063 4.10606 82.0034 3.55313 90.5265 7.23481C97.1445 10.0935 102.994 15.5053 106.876 22.6272C110.242 28.8024 112.129 36.2632 111.754 44.4602L108.281 120.408C107.714 132.79 104.745 144.373 95.4594 149.847L63.1148 168.383C51.4836 175.24 37.0312 171.144 28.034 162.445C19.8136 154.497 14.7638 141.881 16.6693 127.932L26.9861 52.4094Z" fill="#8F9EFF"/>
<path d="M111.754 44.4602L108.281 120.408C107.714 132.79 104.745 144.373 95.4594 149.847L63.1148 168.383C51.4836 175.24 37.0312 171.144 28.034 162.445C41.7165 180.78 51.5458 183.461 73.1963 173.707L104.11 155.413L104.172 155.369C113.496 148.613 118.743 144.811 118.386 129.921L121.101 53.2597C121.352 24.0739 113.608 14.7926 90.5265 7.23481C97.1445 10.0935 102.994 15.5053 106.876 22.6272C110.242 28.8024 112.129 36.2632 111.754 44.4602Z" fill="black"/>
<path d="M28.034 162.445C37.0312 171.144 51.4836 175.24 63.1148 168.383L95.4594 149.847C104.745 144.373 107.714 132.79 108.281 120.408L111.754 44.4602C112.129 36.2632 110.242 28.8024 106.876 22.6272C102.994 15.5053 97.1445 10.0935 90.5265 7.23481M28.034 162.445C19.8136 154.497 14.7638 141.881 16.6693 127.932L26.9861 52.4094C28.2839 42.9094 32.8215 34.6027 39.5663 29.3801L47.9396 22.8964L63.698 10.6943C72.2063 4.10606 82.0034 3.55313 90.5265 7.23481M28.034 162.445C41.7165 180.78 51.5458 183.461 73.1963 173.707L104.11 155.413M104.11 155.413L104.172 155.369M104.11 155.413C104.131 155.399 104.151 155.384 104.172 155.369M90.5265 7.23481C113.608 14.7926 121.352 24.0739 121.101 53.2597L118.386 129.921C118.743 144.811 113.496 148.613 104.172 155.369" stroke="black" stroke-width="2.46021"/>
</g>
<rect id="phone-dead-cracks-115" x="47.3865" y="77.9195" width="4.5548" height="4.5548" transform="rotate(-7.24599 47.3865 77.9195)" fill="black"/>
<rect id="phone-dead-cracks-114" x="51.2182" y="72.9017" width="4.5548" height="4.5548" transform="rotate(-7.24599 51.2182 72.9017)" fill="black"/>
<rect id="phone-dead-cracks-113" x="35.9511" y="32.0051" width="3.21119" height="3.21119" fill="black"/>
<rect id="phone-dead-cracks-112" x="39.1627" y="32.0047" width="3.21119" height="3.21119" fill="black"/>
<rect id="phone-dead-cracks-111" x="39.1626" y="34.1457" width="3.21119" height="3.21119" fill="black"/>
<rect id="phone-dead-cracks-110" x="42.3737" y="33.0752" width="3.21119" height="3.21119" fill="black"/>
<rect id="phone-dead-cracks-109" x="42.3075" y="44.8954" width="3.21119" height="3.21119" fill="black"/>
<rect id="phone-dead-cracks-108" x="42.5024" y="38.3557" width="3.21119" height="3.21119" fill="black"/>
<rect id="phone-dead-cracks-107" x="45.0793" y="39.7416" width="3.21119" height="3.21119" fill="black"/>
<rect id="phone-dead-cracks-106" x="44.6787" y="31.2206" width="3.21119" height="3.21119" fill="black"/>
<rect id="phone-dead-cracks-105" x="44.1915" y="47.5698" width="3.21119" height="3.21119" fill="black"/>
<rect id="phone-dead-cracks-104" x="40.2329" y="37.357" width="3.21119" height="3.21119" fill="black"/>
<rect id="phone-dead-cracks-103" x="38.0921" y="40.5682" width="3.21119" height="3.21119" fill="black"/>
<rect id="phone-dead-cracks-102" x="40.2327" y="43.7796" width="3.21119" height="3.21119" fill="black"/>
<rect id="phone-dead-cracks-101" x="24.4976" y="152.637" width="3.27726" height="3.27726" fill="black"/>
<rect id="phone-dead-cracks-100" x="23.9363" y="153.818" width="3.27726" height="3.27726" fill="black"/>
<rect id="phone-dead-cracks-99" x="26.6821" y="149.36" width="3.27726" height="3.27726" fill="black"/>
<rect id="phone-dead-cracks-98" x="28.8671" y="151.545" width="3.27726" height="3.27726" fill="black"/>
<rect id="phone-dead-cracks-97" x="31.0522" y="149.36" width="3.27726" height="3.27726" fill="black"/>
<rect id="phone-dead-cracks-96" x="31.8645" y="155.726" width="3.27726" height="3.27726" fill="black"/>
<rect id="phone-dead-cracks-95" x="29.0913" y="158.671" width="3.27726" height="3.27726" fill="black"/>
<rect id="phone-dead-cracks-94" x="34.3292" y="152.638" width="3.27726" height="3.27726" fill="black"/>
<rect id="phone-dead-cracks-93" x="36.5138" y="150.453" width="3.27726" height="3.27726" fill="black"/>
<rect id="phone-dead-cracks-92" x="38.6993" y="147.175" width="3.27726" height="3.27726" fill="black"/>
<rect id="phone-dead-cracks-91" x="37.6064" y="143.898" width="3.27726" height="3.27726" fill="black"/>
<rect id="phone-dead-cracks-90" x="39.7912" y="140.621" width="3.27726" height="3.27726" fill="black"/>
<rect id="phone-dead-cracks-89" x="41.976" y="141.713" width="3.27726" height="3.27726" fill="black"/>
<rect id="phone-dead-cracks-88" x="44.1607" y="139.529" width="3.27726" height="3.27726" fill="black"/>
<rect id="phone-dead-cracks-87" x="47.4383" y="141.713" width="3.27726" height="3.27726" fill="black"/>
<rect id="phone-dead-cracks-86" x="103.651" y="101.378" width="3.36943" height="3.36943" fill="black"/>
<rect id="phone-dead-cracks-85" x="105.484" y="104.087" width="3.36943" height="3.36943" fill="black"/>
<rect id="phone-dead-cracks-84" x="101.404" y="103.625" width="3.36943" height="3.36943" fill="black"/>
<rect id="phone-dead-cracks-83" x="98.0349" y="101.378" width="3.36943" height="3.36943" fill="black"/>
<rect id="phone-dead-cracks-82" x="95.7885" y="103.625" width="3.36943" height="3.36943" fill="black"/>
<rect id="phone-dead-cracks-81" x="96.9119" y="106.994" width="3.36943" height="3.36943" fill="black"/>
<rect id="phone-dead-cracks-80" x="93.542" y="109.241" width="3.36943" height="3.36943" fill="black"/>
<rect id="phone-dead-cracks-79" x="95.7887" y="112.61" width="3.36943" height="3.36943" fill="black"/>
<rect id="phone-dead-cracks-78" x="93.5423" y="114.856" width="3.36943" height="3.36943" fill="black"/>
<rect id="phone-dead-cracks-77" x="93.5425" y="112.609" width="3.36943" height="3.36943" fill="black"/>
<rect id="phone-dead-cracks-76" x="91.2962" y="145.181" width="3.36943" height="3.36943" fill="black"/>
<rect id="phone-dead-cracks-75" x="93.867" y="145.937" width="3.36943" height="3.36943" fill="black"/>
<rect id="phone-dead-cracks-74" x="89.0497" y="144.058" width="3.36943" height="3.36943" fill="black"/>
<rect id="phone-dead-cracks-73" x="87.9269" y="141.811" width="3.36943" height="3.36943" fill="black"/>
<rect id="phone-dead-cracks-72" x="89.0496" y="138.442" width="3.36943" height="3.36943" fill="black"/>
<rect id="phone-dead-cracks-71" x="85.6801" y="137.319" width="3.36943" height="3.36943" fill="black"/>
<rect id="phone-dead-cracks-70" x="83.434" y="133.949" width="3.36943" height="3.36943" fill="black"/>
<rect id="phone-dead-cracks-69" x="85.6801" y="130.58" width="3.36943" height="3.36943" fill="black"/>
<rect id="phone-dead-cracks-68" x="83.4341" y="127.21" width="3.36943" height="3.36943" fill="black"/>
<rect id="phone-dead-cracks-67" x="84.2611" y="37.7824" width="4.36256" height="4.36256" fill="black"/>
<rect id="phone-dead-cracks-66" x="85.7152" y="34.8741" width="4.36256" height="4.36256" fill="black"/>
<rect id="phone-dead-cracks-65" x="87.1694" y="42.1451" width="4.36256" height="4.36256" fill="black"/>
<rect id="phone-dead-cracks-64" x="91.5317" y="39.2369" width="4.36256" height="4.36256" fill="black"/>
<rect id="phone-dead-cracks-63" x="94.4402" y="42.1453" width="4.36256" height="4.36256" fill="black"/>
<rect id="phone-dead-cracks-62" x="92.9856" y="46.5082" width="4.36256" height="4.36256" fill="black"/>
<rect id="phone-dead-cracks-61" x="92.9856" y="46.5082" width="4.36256" height="4.36256" fill="black"/>
<rect id="phone-dead-cracks-60" x="69.9102" y="11.1462" width="3.20616" height="3.20616" fill="black"/>
<rect id="phone-dead-cracks-59" x="68.1562" y="7.98602" width="3.20616" height="3.20616" fill="black"/>
<rect id="phone-dead-cracks-58" x="67.7725" y="13.2839" width="3.20616" height="3.20616" fill="black"/>
<rect id="phone-dead-cracks-57" x="69.9098" y="15.4216" width="3.20616" height="3.20616" fill="black"/>
<rect id="phone-dead-cracks-56" x="66.7037" y="17.5589" width="3.20616" height="3.20616" fill="black"/>
<rect id="phone-dead-cracks-55" x="68.841" y="19.6965" width="3.20616" height="3.20616" fill="black"/>
<rect id="phone-dead-cracks-54" x="66.7038" y="21.8337" width="3.20616" height="3.20616" fill="black"/>
<rect id="phone-dead-cracks-53" x="72.0474" y="20.765" width="3.20616" height="3.20616" fill="black"/>
<rect id="phone-dead-cracks-52" x="74.1848" y="21.8338" width="3.20616" height="3.20616" fill="black"/>
<rect id="phone-dead-cracks-51" x="75.2528" y="25.0406" width="3.20616" height="3.20616" fill="black"/>
<rect id="phone-dead-cracks-50" x="78.4595" y="22.9027" width="3.20616" height="3.20616" fill="black"/>
<rect id="phone-dead-cracks-49" x="80.5971" y="18.6277" width="3.20616" height="3.20616" fill="black"/>
<rect id="phone-dead-cracks-48" x="80.5972" y="20.765" width="3.20616" height="3.20616" fill="black"/>
<rect id="phone-dead-cracks-47" x="65.6348" y="25.0402" width="3.20616" height="3.20616" fill="black"/>
<rect id="phone-dead-cracks-46" x="65.635" y="28.246" width="3.20616" height="3.20616" fill="black"/>
<rect id="phone-dead-cracks-45" x="68.8409" y="27.1776" width="3.20616" height="3.20616" fill="black"/>
<rect id="phone-dead-cracks-44" x="70.9789" y="30.3832" width="3.20616" height="3.20616" fill="black"/>
<rect id="phone-dead-cracks-43" x="70.9789" y="30.3832" width="3.20616" height="3.20616" fill="black"/>
<rect id="phone-dead-cracks-42" x="97.3485" y="39.2369" width="4.36256" height="4.36256" fill="black"/>
<rect id="phone-dead-cracks-41" x="100.257" y="36.3287" width="4.36256" height="4.36256" fill="black"/>
<rect id="phone-dead-cracks-40" x="98.8031" y="31.9655" width="4.36256" height="4.36256" fill="black"/>
<rect id="phone-dead-cracks-39" x="101.711" y="29.0574" width="4.36256" height="4.36256" fill="black"/>
<rect id="phone-dead-cracks-38" x="98.8033" y="26.1486" width="4.36256" height="4.36256" fill="black"/>
<rect id="phone-dead-cracks-37" x="101.711" y="21.7868" width="4.36256" height="4.36256" fill="black"/>
<rect id="phone-dead-cracks-36" x="49.6231" y="138.436" width="3.27726" height="3.27726" fill="black"/>
<rect id="phone-dead-cracks-35" x="51.8079" y="136.251" width="3.27726" height="3.27726" fill="black"/>
<rect id="phone-dead-cracks-34" x="49.6228" y="130.789" width="3.27726" height="3.27726" fill="black"/>
<rect id="phone-dead-cracks-33" x="51.8081" y="132.974" width="3.27726" height="3.27726" fill="black"/>
<rect id="phone-dead-cracks-32" x="36.5142" y="129.697" width="3.27726" height="3.27726" fill="black"/>
<rect id="phone-dead-cracks-31" x="41.976" y="141.713" width="3.27726" height="3.27726" fill="black"/>
<rect id="phone-dead-cracks-30" x="37.6066" y="137.343" width="3.27726" height="3.27726" fill="black"/>
<rect id="phone-dead-cracks-29" x="38.6994" y="132.973" width="3.27726" height="3.27726" fill="black"/>
<rect id="phone-dead-cracks-28" x="39.7914" y="135.159" width="3.27726" height="3.27726" fill="black"/>
<rect id="phone-dead-cracks-27" x="43.4345" y="82.9531" width="4.5548" height="4.5548" transform="rotate(-7.24599 43.4345 82.9531)" fill="black"/>
<rect id="phone-dead-cracks-26" x="52.3522" y="81.8187" width="4.5548" height="4.5548" transform="rotate(-7.24599 52.3522 81.8187)" fill="black"/>
<rect id="phone-dead-cracks-25" x="42.3012" y="74.0352" width="4.5548" height="4.5548" transform="rotate(-7.24599 42.3012 74.0352)" fill="black"/>
<rect id="phone-dead-cracks-24" x="68.9896" y="70.6421" width="4.5548" height="4.5548" transform="rotate(-7.24599 68.9896 70.6421)" fill="black"/>
<rect id="phone-dead-cracks-23" x="70.1232" y="79.5595" width="4.5548" height="4.5548" transform="rotate(-7.24599 70.1232 79.5595)" fill="black"/>
<rect id="phone-dead-cracks-22" x="74.0149" y="74.534" width="4.5548" height="4.5548" transform="rotate(-7.24599 74.0149 74.534)" fill="black"/>
<rect id="phone-dead-cracks-21" x="77.9066" y="69.5087" width="4.5548" height="4.5548" transform="rotate(-7.24599 77.9066 69.5087)" fill="black"/>
<rect id="phone-dead-cracks-20" x="79.0406" y="78.4255" width="4.5548" height="4.5548" transform="rotate(-7.24599 79.0406 78.4255)" fill="black"/>
<rect id="phone-dead-cracks-19" width="7.65036" height="6.3753" transform="matrix(0.992014 -0.12613 -0.12613 -0.992014 48.2297 110.556)" fill="black"/>
<rect id="phone-dead-cracks-18" width="7.65036" height="7.01283" transform="matrix(0.992014 -0.12613 -0.12613 -0.992014 55.0149 103.267)" fill="black"/>
<rect id="phone-dead-cracks-17" width="7.65036" height="7.01283" transform="matrix(0.992014 -0.12613 -0.12613 -0.992014 62.6043 102.302)" fill="black"/>
<rect id="phone-dead-cracks-16" width="7.65036" height="7.01283" transform="matrix(0.992014 -0.12613 -0.12613 -0.992014 70.1936 101.337)" fill="black"/>
<rect id="phone-dead-cracks-15" width="7.65036" height="6.3753" transform="matrix(0.992014 -0.12613 -0.12613 -0.992014 78.5871 106.696)" fill="black"/>
<rect id="phone-dead-cracks-14" x="24.197" y="82.715" width="3.77978" height="3.77978" fill="black"/>
<rect id="phone-dead-cracks-13" x="26.9887" y="85.8211" width="3.77978" height="3.77978" fill="black"/>
<rect id="phone-dead-cracks-12" x="29.5089" y="89.6004" width="3.77978" height="3.77978" fill="black"/>
<rect id="phone-dead-cracks-11" x="32.0288" y="93.3802" width="3.77978" height="3.77978" fill="black"/>
<rect id="phone-dead-cracks-10" x="29.5088" y="94.6403" width="3.77978" height="3.77978" fill="black"/>
<rect id="phone-dead-cracks-09" x="30.7686" y="95.9003" width="3.77978" height="3.77978" fill="black"/>
<rect id="phone-dead-cracks-08" x="28.2489" y="99.68" width="3.77978" height="3.77978" fill="black"/>
<rect id="phone-dead-cracks-07" x="30.7686" y="102.2" width="3.77978" height="3.77978" fill="black"/>
<rect id="phone-dead-cracks-06" x="29.5086" y="105.98" width="3.77978" height="3.77978" fill="black"/>
<rect id="phone-dead-cracks-05" x="33.2881" y="109.76" width="3.77978" height="3.77978" fill="black"/>
<rect id="phone-dead-cracks-04" x="33.2881" y="109.76" width="3.77978" height="3.77978" fill="black"/>
<rect id="phone-dead-cracks-03" x="33.2881" y="109.76" width="3.77978" height="3.77978" fill="black"/>
<rect id="phone-dead-cracks-02" x="30.7686" y="113.539" width="3.77978" height="3.77978" fill="black"/>
<rect id="phone-dead-cracks-01" x="32.0285" y="116.059" width="3.77978" height="3.77978" fill="black"/>
</g>
<defs>
<filter id="filter0_d_110_74" x="12.2719" y="3.73478" width="112.83" height="182.291" filterUnits="userSpaceOnUse" color-interpolation-filters="sRGB">
<feFlood flood-opacity="0" result="BackgroundImageFix"/>
<feColorMatrix in="SourceAlpha" type="matrix" values="0 0 0 0 0 0 0 0 0 0 0 0 0 0 0 0 0 0 127 0" result="hardAlpha"/>
<feOffset dy="2.76543"/>
<feGaussianBlur stdDeviation="1.38271"/>
<feComposite in2="hardAlpha" operator="out"/>
<feColorMatrix type="matrix" values="0 0 0 0 0 0 0 0 0 0 0 0 0 0 0 0 0 0 1 0"/>
<feBlend mode="normal" in2="BackgroundImageFix" result="effect1_dropShadow_110_74"/>
<feBlend mode="normal" in="SourceGraphic" in2="effect1_dropShadow_110_74" result="shape"/>
</filter>
</defs>
</svg>
