<svg viewBox="0 0 38.1611 29.2141" fill="none" xmlns="http://www.w3.org/2000/svg">
<path id="gold-coin-42" d="M37.2939 17.3623C37.2939 20.2254 35.4228 22.9513 32.1152 25.0059C28.8204 27.0524 24.2135 28.3467 19.0801 28.3467C13.9469 28.3466 9.34066 27.0524 6.0459 25.0059C2.73829 22.9513 0.867198 20.2254 0.867188 17.3623V17.0732C1.9123 18.5632 3.37913 19.8806 5.13086 20.9688C8.74169 23.2116 13.6758 24.5712 19.0801 24.5713C24.4846 24.5713 29.4193 23.2117 33.0303 20.9688C34.782 19.8806 36.2488 18.5632 37.2939 17.0732V17.3623ZM19.0801 0.867188C24.2135 0.867188 28.8204 2.16142 32.1152 4.20801C35.4228 6.26256 37.2939 8.98847 37.2939 11.8516C37.2939 14.7147 35.4228 17.4405 32.1152 19.4951C28.8204 21.5417 24.2135 22.8359 19.0801 22.8359C13.9469 22.8359 9.34066 21.5416 6.0459 19.4951C2.73835 17.4405 0.867188 14.7147 0.867188 11.8516C0.867282 8.98847 2.73831 6.26256 6.0459 4.20801C9.34066 2.16149 13.9469 0.867269 19.0801 0.867188Z" fill="#E8C375" stroke="black" stroke-width="1.7346"/>
</svg>
