<svg viewBox="0 0 38.1611 26.0189" fill="none" xmlns="http://www.w3.org/2000/svg">
<path id="gold-coin-32" d="M37.2939 15.4639C37.2937 17.9187 35.4839 20.3249 32.1523 22.168C28.8507 23.9944 24.2305 25.1514 19.0801 25.1514C13.9298 25.1513 9.3103 23.9944 6.00879 22.168C2.67724 20.3249 0.867423 17.9187 0.867188 15.4639V15.2627C1.92618 16.6193 3.41305 17.8069 5.16895 18.7783C8.77301 20.7721 13.6929 21.9784 19.0801 21.9785C24.4674 21.9785 29.388 20.7721 32.9922 18.7783C34.7481 17.8069 36.235 16.6193 37.2939 15.2627V15.4639ZM19.0801 0.867188C24.2304 0.867188 28.8507 2.02419 32.1523 3.85059C35.4841 5.69375 37.2939 8.1007 37.2939 10.5557C37.2939 13.0106 35.4841 15.4176 32.1523 17.2607C28.8507 19.0871 24.2304 20.2441 19.0801 20.2441C13.9299 20.2441 9.31028 19.0871 6.00879 17.2607C2.78096 15.4751 0.98215 13.1601 0.873047 10.7852L0.867188 10.5557L0.873047 10.3252C0.982505 7.95049 2.78132 5.63606 6.00879 3.85059C9.31029 2.02424 13.9299 0.86726 19.0801 0.867188Z" fill="#E8C375" stroke="black" stroke-width="1.7346"/>
</svg>
