<svg viewBox="0 0 32.9229 22.4474" fill="none" xmlns="http://www.w3.org/2000/svg">
<path id="gold-coin-48" d="M0.748047 13.166C1.66172 14.3368 2.94366 15.3629 4.45898 16.2012C7.56844 17.9214 11.814 18.9619 16.4619 18.9619C21.1096 18.9618 25.3545 17.9213 28.4639 16.2012C29.9789 15.363 31.2612 14.3375 32.1748 13.167V13.3408C32.1748 15.4588 30.6136 17.5349 27.7393 19.125C24.8909 20.7007 20.9053 21.6992 16.4619 21.6992C12.0184 21.6992 8.03201 20.7008 5.18359 19.125C2.30932 17.5349 0.748057 15.4587 0.748047 13.3408V13.166ZM16.4619 0.748047C20.9053 0.748115 24.8909 1.74654 27.7393 3.32227C30.6135 4.91237 32.1747 6.98856 32.1748 9.10645C32.1748 11.2244 30.6137 13.3014 27.7393 14.8916C24.8909 16.4673 20.9052 17.4648 16.4619 17.4648C12.0184 17.4648 8.03201 16.4674 5.18359 14.8916C2.30916 13.3014 0.748047 11.2244 0.748047 9.10645C0.748147 6.98857 2.30935 4.91237 5.18359 3.32227C8.03201 1.74649 12.0184 0.748047 16.4619 0.748047Z" fill="#E8C375" stroke="black" stroke-width="1.4965"/>
</svg>
