<svg viewBox="0 0 44 30" fill="none" xmlns="http://www.w3.org/2000/svg">
<path id="gold-coin-54" d="M43 17.8291C43 20.6597 40.9138 23.4354 37.0723 25.5605C33.2655 27.6665 27.9385 29 22 29C16.0615 29 10.7345 27.6665 6.92773 25.5605C3.08619 23.4354 1 20.6597 1 17.8291V17.5977C2.22103 19.1618 3.93535 20.5313 5.95996 21.6514C10.1156 23.9502 15.7884 25.3408 22 25.3408C28.2116 25.3408 33.8844 23.9502 38.04 21.6514C40.0647 20.5313 41.779 19.1618 43 17.5977V17.8291ZM22 1C27.9385 1 33.2655 2.33354 37.0723 4.43945C40.9138 6.56464 43 9.34031 43 12.1709C42.9999 15.0014 40.9137 17.7763 37.0723 19.9014C33.2655 22.0073 27.9386 23.3408 22 23.3408C16.0614 23.3408 10.7345 22.0073 6.92773 19.9014C3.20615 17.8425 1.13173 15.1738 1.00586 12.4355L1 12.1709L1.00586 11.9053C1.13193 9.16712 3.2063 6.49819 6.92773 4.43945C10.7345 2.33354 16.0615 1 22 1Z" fill="#E8C375" stroke="black" stroke-width="2"/>
</svg>
