<svg viewBox="0 0 583.561 608.935" fill="none" xmlns="http://www.w3.org/2000/svg">
<g id="peach-blob-in-pot" filter="url(#filter0_d_110_236)">
<g id="peach-in-pot">
<path d="M306.315 165.183C343.094 199.981 400.136 215.838 403.88 235.659C407.624 255.26 357.63 278.605 321.071 310.319C309.767 320.125 299.726 330.731 290.623 340.64C270.285 362.778 254.629 381.436 240.024 379.914C234.338 379.263 228.827 375.569 223.2 369.9C207.904 354.487 191.751 324.475 168.887 301.29C166.83 299.219 164.721 297.203 162.574 295.238C131.84 267.114 93.3218 249.374 89.8223 228.171C86.0783 205.487 122.417 179.058 153.691 144.481C184.965 109.904 211.393 66.958 232.536 72.2436C253.899 77.3091 269.756 130.606 306.315 165.183Z" fill="#EC6B6B"/>
<path d="M130.109 366.522C118.568 386.327 116.52 395.272 127.255 404.201C134.225 408.163 141.39 411.01 149.165 412.644C183.512 419.862 229.772 403.415 323.77 354.898C400.097 309.775 425.489 285.829 452.515 244.535C453.931 240.783 455.144 237.303 456.145 234.077C465.261 204.693 456.83 196.384 424.736 196.419L428.467 207.447C437.942 235.785 416.024 261.856 290.623 340.64C270.285 362.778 254.629 381.436 240.024 379.914C234.338 379.263 228.827 375.569 223.2 369.9C168.014 398.687 139.098 391.889 142.966 370.524C134.63 370.208 131.367 366.812 128.355 354.352L130.109 366.522Z" fill="#3E281B"/>
<path d="M452.515 244.535C425.489 285.829 400.097 309.775 323.77 354.898C229.772 403.415 183.512 419.862 149.165 412.644C152.984 513.594 214.067 565.596 297.982 554.055C349.6 546.957 409.856 515.816 470.739 457.236C519.574 411.418 531.8 380.533 527.414 316.419C521.549 292.561 494.933 256.782 456.145 234.077C455.144 237.303 453.931 240.783 452.515 244.535Z" fill="#3E281B"/>
<path d="M424.736 196.419L428.467 207.447C437.942 235.785 416.024 261.856 290.623 340.64M424.736 196.419C456.83 196.384 465.261 204.693 456.145 234.077M424.736 196.419C393.56 200.234 380.097 202.997 369.288 209.976M140.973 325.975L156.792 298.576L162.574 295.238M162.574 295.238C164.721 297.203 166.83 299.219 168.887 301.29C191.751 324.475 207.904 354.487 223.2 369.9M162.574 295.238C131.84 267.114 93.3218 249.374 89.8223 228.171C86.0783 205.487 122.417 179.058 153.691 144.481C184.965 109.904 211.393 66.958 232.536 72.2436C253.899 77.3091 269.756 130.606 306.315 165.183C343.094 199.981 400.136 215.838 403.88 235.659C407.624 255.26 357.63 278.605 321.071 310.319C309.767 320.125 299.726 330.731 290.623 340.64M223.2 369.9C228.827 375.569 234.338 379.263 240.024 379.914C254.629 381.436 270.285 362.778 290.623 340.64M223.2 369.9C168.014 398.687 139.098 391.889 142.966 370.524C134.63 370.208 131.367 366.812 128.355 354.352L130.109 366.522C118.568 386.327 116.52 395.272 127.255 404.201C134.225 408.163 141.39 411.01 149.165 412.644M456.145 234.077C455.144 237.303 453.931 240.783 452.515 244.535C425.489 285.829 400.097 309.775 323.77 354.898C229.772 403.415 183.512 419.862 149.165 412.644M456.145 234.077C494.933 256.782 521.549 292.561 527.414 316.419C531.8 380.533 519.574 411.418 470.739 457.236C409.856 515.816 349.6 546.957 297.982 554.055C214.067 565.596 152.984 513.594 149.165 412.644" stroke="black" stroke-width="7.61088"/>
</g>
<path id="peach-eyes-r" d="M259.126 197.423C260.731 195.059 261.644 192.293 261.761 189.438C261.878 186.582 261.195 183.751 259.788 181.264C258.382 178.776 256.308 176.731 253.802 175.359C251.295 173.987 248.455 173.343 245.601 173.499C242.748 173.655 239.995 174.606 237.653 176.243C235.311 177.881 233.473 180.14 232.347 182.766C231.221 185.392 230.851 188.281 231.278 191.107C231.706 193.932 232.915 196.582 234.769 198.756L246.44 188.81L259.126 197.423Z" fill="#0F0000"/>
<path id="peach-eyes-l" d="M206.031 212.699C206.97 210 207.135 207.092 206.509 204.304C205.883 201.516 204.491 198.958 202.488 196.919C200.486 194.88 197.954 193.442 195.178 192.765C192.401 192.089 189.491 192.202 186.775 193.091C184.06 193.98 181.647 195.611 179.808 197.799C177.97 199.986 176.779 202.644 176.371 205.473C175.963 208.301 176.353 211.187 177.498 213.806C178.642 216.424 180.496 218.67 182.849 220.291L191.548 207.663L206.031 212.699Z" fill="#0F0000"/>
</g>
<defs>
<filter id="filter0_d_110_236" x="75.9496" y="67.992" width="465.897" height="511.05" filterUnits="userSpaceOnUse" color-interpolation-filters="sRGB">
<feFlood flood-opacity="0" result="BackgroundImageFix"/>
<feColorMatrix in="SourceAlpha" type="matrix" values="0 0 0 0 0 0 0 0 0 0 0 0 0 0 0 0 0 0 127 0" result="hardAlpha"/>
<feOffset dy="9.79965"/>
<feGaussianBlur stdDeviation="4.89983"/>
<feComposite in2="hardAlpha" operator="out"/>
<feColorMatrix type="matrix" values="0 0 0 0 0 0 0 0 0 0 0 0 0 0 0 0 0 0 1 0"/>
<feBlend mode="normal" in2="BackgroundImageFix" result="effect1_dropShadow_110_236"/>
<feBlend mode="normal" in="SourceGraphic" in2="effect1_dropShadow_110_236" result="shape"/>
</filter>
</defs>
</svg>
