<svg viewBox="0 0 91.0947 22.1385" fill="none" xmlns="http://www.w3.org/2000/svg">
<g id="phone-dead-starlines-03">
<path d="M90.7927 11.8926C90.7927 15.7526 83.5143 19.174 72.3059 21.2925C86.9716 18.6857 91.3971 16.5039 90.7927 11.8926Z" fill="black"/>
<path d="M21.4225 21.7135C8.87367 19.6456 0.552711 16.0198 0.552711 11.8926C-1.05256 16.5658 3.38557 18.7804 21.4225 21.7135Z" fill="black"/>
<path d="M90.7927 11.8926C90.7927 5.46185 70.5917 0.24872 45.6727 0.24872C20.7536 0.24872 0.552711 5.46185 0.552711 11.8926M90.7927 11.8926C90.7927 15.7526 83.5143 19.174 72.3059 21.2925M90.7927 11.8926C91.3971 16.5039 86.9716 18.6857 72.3059 21.2925M0.552711 11.8926C0.552711 16.0198 8.87367 19.6456 21.4225 21.7135M0.552711 11.8926C-1.05256 16.5658 3.38557 18.7804 21.4225 21.7135M22.0956 21.8222C21.8691 21.7859 21.6448 21.7496 21.4225 21.7135M72.3059 21.2925C71.1964 21.4897 70.0282 21.6894 68.7992 21.8927C70.0058 21.7065 71.1758 21.5061 72.3059 21.2925Z" stroke="black" stroke-width="0.49744"/>
</g>
</svg>
