<svg viewBox="0 0 75.9801 18.4652" fill="none" xmlns="http://www.w3.org/2000/svg">
<g id="phone-dead-starlines-02">
<path d="M75.7281 9.91934C75.7281 13.1389 69.6574 15.9926 60.3088 17.7596C72.5411 15.5853 76.2323 13.7656 75.7281 9.91934Z" fill="black"/>
<path d="M17.868 18.1107C7.40133 16.3859 0.461004 13.3618 0.461004 9.91934C-0.877916 13.8172 2.82383 15.6643 17.868 18.1107Z" fill="black"/>
<path d="M75.7281 9.91934C75.7281 4.55561 58.879 0.207452 38.0946 0.207452C17.3101 0.207452 0.461004 4.55561 0.461004 9.91934M75.7281 9.91934C75.7281 13.1389 69.6574 15.9926 60.3088 17.7596M75.7281 9.91934C76.2323 13.7656 72.5411 15.5853 60.3088 17.7596M0.461004 9.91934C0.461004 13.3618 7.40133 16.3859 17.868 18.1107M0.461004 9.91934C-0.877916 13.8172 2.82383 15.6643 17.868 18.1107M18.4294 18.2014C18.2406 18.1711 18.0534 18.1409 17.868 18.1107M60.3088 17.7596C59.3833 17.9241 58.409 18.0906 57.3839 18.2602C58.3903 18.1049 59.3662 17.9378 60.3088 17.7596Z" stroke="black" stroke-width="0.414904"/>
</g>
</svg>
