<svg viewBox="0 0 73.449 17.8501" fill="none" xmlns="http://www.w3.org/2000/svg">
<g id="phone-dead-starlines-01">
<path d="M73.2054 9.5889C73.2054 12.7012 67.3369 15.4598 58.2997 17.168C70.1246 15.0661 73.6928 13.307 73.2054 9.5889Z" fill="black"/>
<path d="M17.2728 17.5074C7.15477 15.8401 0.445646 12.9167 0.445646 9.5889C-0.84867 13.3569 2.72976 15.1425 17.2728 17.5074Z" fill="black"/>
<path d="M73.2054 9.5889C73.2054 4.40385 56.9176 0.200541 36.8255 0.200541C16.7335 0.200541 0.445646 4.40385 0.445646 9.5889M73.2054 9.5889C73.2054 12.7012 67.3369 15.4598 58.2997 17.168M73.2054 9.5889C73.6928 13.307 70.1246 15.0661 58.2997 17.168M0.445646 9.5889C0.445646 12.9167 7.15477 15.8401 17.2728 17.5074M0.445646 9.5889C-0.84867 13.3569 2.72976 15.1425 17.2728 17.5074M17.8155 17.5951C17.6329 17.5658 17.452 17.5365 17.2728 17.5074M58.2997 17.168C57.4051 17.327 56.4632 17.488 55.4723 17.6519C56.4451 17.5018 57.3885 17.3402 58.2997 17.168Z" stroke="black" stroke-width="0.401082"/>
</g>
</svg>
