<svg viewBox="0 0 108.877 26.4601" fill="none" xmlns="http://www.w3.org/2000/svg">
<g id="phone-dead-starlines-04">
<path d="M108.516 14.2141C108.516 18.8276 99.8167 22.9168 86.4204 25.4489C103.949 22.3332 109.238 19.7256 108.516 14.2141Z" fill="black"/>
<path d="M25.6043 25.952C10.6059 23.4805 0.660603 19.147 0.660603 14.2141C-1.25802 19.7995 4.04645 22.4464 25.6043 25.952Z" fill="black"/>
<path d="M108.516 14.2141C108.516 6.52804 84.3716 0.297271 54.5882 0.297271C24.8048 0.297271 0.660603 6.52804 0.660603 14.2141M108.516 14.2141C108.516 18.8276 99.8167 22.9168 86.4204 25.4489M108.516 14.2141C109.238 19.7256 103.949 22.3332 86.4204 25.4489M0.660603 14.2141C0.660603 19.147 10.6059 23.4805 25.6043 25.952M0.660603 14.2141C-1.25802 19.7995 4.04645 22.4464 25.6043 25.952M26.4087 26.082C26.1381 26.0386 25.87 25.9952 25.6043 25.952M86.4204 25.4489C85.0943 25.6846 83.6981 25.9233 82.2292 26.1663C83.6713 25.9437 85.0698 25.7042 86.4204 25.4489Z" stroke="black" stroke-width="0.594543"/>
</g>
</svg>
