<svg preserveAspectRatio="none" width="100%" height="100%" overflow="visible" style="display: block;" viewBox="0 0 0.698453 0.554848" fill="none" xmlns="http://www.w3.org/2000/svg">
<g id="dollar-person-eyes-l">
<mask id="path-1-inside-1_70_861" fill="white">
<path d="M0.698453 0.554848C0.698453 0.469741 0.678875 0.385775 0.641233 0.309445C0.603591 0.233115 0.548895 0.166467 0.481375 0.114657C0.413855 0.0628477 0.335322 0.0272648 0.251851 0.0106613C0.168379 -0.00594226 0.0822069 -0.00312127 -1.10225e-08 0.018906L0.143605 0.554848H0.698453Z"/>
</mask>
<path d="M0.698453 0.554848C0.698453 0.469741 0.678875 0.385775 0.641233 0.309445C0.603591 0.233115 0.548895 0.166467 0.481375 0.114657C0.413855 0.0628477 0.335322 0.0272648 0.251851 0.0106613C0.168379 -0.00594226 0.0822069 -0.00312127 -1.10225e-08 0.018906L0.143605 0.554848H0.698453Z" fill="var(--fill-0, #0F0000)" stroke="var(--stroke-0, #3E6E59)" stroke-width="0.424472" mask="url(#path-1-inside-1_70_861)"/>
</g>
</svg>
