<svg preserveAspectRatio="none" width="100%" height="100%" overflow="visible" style="display: block;" viewBox="0 0 11.8021 15.6158" fill="none" xmlns="http://www.w3.org/2000/svg">
<g id="dollar-person">
<path d="M5.83847 0.315424C2.73953 0.315424 0.227352 3.665 0.227352 7.79691C0.227352 10.1491 1.04149 12.2478 2.31454 13.6193C2.31454 13.6193 5.37088 14.3432 4.07127 12.6572C2.77167 10.9712 1.97271 10.7818 1.72281 10.0533C1.46502 9.3377 1.93322 8.36182 2.49166 7.39729C3.03974 6.43522 3.67808 5.48452 4.86478 4.67694C6.05395 3.87971 7.80431 3.23349 8.4887 3.90235C9.17309 4.57121 8.80433 6.56304 8.83314 8.1101C8.86441 9.66753 10.982 9.66729 9.57922 12.0053C8.17644 14.3432 10.2189 12.4728 10.2189 12.4728C10.989 11.192 11.4496 9.56619 11.4496 7.79691C11.4496 3.665 8.9374 0.315424 5.83847 0.315424Z" fill="var(--fill-0, #D9D9D9)"/>
<path d="M8.4887 3.90235C7.80431 3.23349 6.05395 3.87971 4.86478 4.67694C3.67808 5.48452 3.03974 6.43522 2.49166 7.39729C1.93322 8.36182 1.46502 9.3377 1.72281 10.0533C1.97271 10.7818 2.77167 10.9712 4.07127 12.6572C5.37088 14.3432 2.31454 13.6193 2.31454 13.6193C3.27775 14.657 4.50368 15.2784 5.83847 15.2784C7.61045 15.2784 9.19059 14.1832 10.2189 12.4728C10.2189 12.4728 8.17644 14.3432 9.57922 12.0053C10.982 9.66729 8.86441 9.66753 8.83314 8.1101C8.80433 6.56304 9.17309 4.57121 8.4887 3.90235Z" fill="#71B797"/>
<path d="M10.8914 11.7877C11.0016 11.5522 11.1083 11.2491 11.1985 11.0091C11.1998 11.0058 11.2011 11.0024 11.2024 10.999C11.2393 10.9011 11.2769 10.801 11.3197 10.6788C11.3252 10.6632 11.3307 10.6473 11.3363 10.631C11.386 10.4859 11.4445 10.3064 11.5106 10.058C11.7329 9.22146 11.7479 8.53433 11.7534 8.32461C11.7571 8.15605 11.7589 7.983 11.7571 7.79691C11.7541 7.51454 11.7439 7.20487 11.7094 6.83513C11.7042 6.77901 11.6984 6.72167 11.6919 6.66311C11.6866 6.6159 11.6915 6.57475 11.7035 6.57228C11.7154 6.56963 11.7299 6.60697 11.7352 6.65441C11.7417 6.71199 11.7474 6.76832 11.7527 6.82338C11.7527 6.82363 11.7527 6.82388 11.7527 6.82413C11.7882 7.20314 11.7982 7.51496 11.8013 7.79691C11.8031 7.97617 11.8015 8.14219 11.7983 8.3039C11.7931 8.51908 11.7792 9.22641 11.5487 10.0871C11.4811 10.3392 11.4213 10.5212 11.3707 10.6679C11.3652 10.6839 11.3597 10.6995 11.3544 10.7147C11.3542 10.715 11.3541 10.7154 11.354 10.7157C11.3103 10.8393 11.2739 10.9354 11.2381 11.0296C11.2374 11.0316 11.2366 11.0336 11.2359 11.0356C11.1439 11.2793 11.0382 11.578 10.9308 11.8076C10.9105 11.8513 10.8847 11.8823 10.8739 11.8766C10.8631 11.871 10.8713 11.8312 10.8914 11.7877ZM3.27757 0.978279C3.07784 1.12823 2.81637 1.32681 2.59622 1.5188C2.37449 1.70993 2.18478 1.89797 2.09648 1.9861C2.00981 2.07236 1.91955 2.1753 1.81874 2.30195C1.79555 2.33111 1.77173 2.36165 1.74731 2.39352C1.66767 2.49743 1.58052 2.61727 1.48922 2.74872C1.15367 3.23611 0.988449 3.58671 0.873561 3.83687C0.850406 3.88819 0.829479 3.93617 0.810162 3.98143C0.810129 3.98151 0.810096 3.98158 0.810063 3.98166C0.737039 4.1532 0.687791 4.28163 0.6382 4.39958C0.55076 4.60904 0.484447 4.78337 0.40606 4.99279C0.295905 5.28324 0.198126 5.71425 0.163499 5.99894C0.161506 6.01451 0.159532 6.03046 0.15755 6.0466C0.132686 6.25322 0.105232 6.50786 0.0805588 6.88773C0.0606223 7.20437 0.0498844 7.47952 0.0457722 7.72418C0.0453688 7.74878 0.0450361 7.77302 0.0447759 7.79691C0.0442936 7.84113 0.0440589 7.88398 0.0440884 7.92564C0.0442293 8.08733 0.04797 8.2323 0.0565353 8.3688C0.113799 9.21397 0.21566 9.69422 0.26838 9.99743C0.31178 10.2302 0.335836 10.3609 0.352968 10.4558C0.358218 10.4844 0.362938 10.5096 0.367808 10.5332C0.411682 10.7442 0.465027 10.9348 0.538248 11.1616C0.554596 11.212 0.572064 11.2644 0.590698 11.3187C0.653322 11.5009 0.711698 11.6327 0.760239 11.7339C0.781657 11.7785 0.801251 11.8172 0.819951 11.8535C0.820302 11.8542 0.820652 11.8549 0.821003 11.8555C0.823612 11.8606 0.826186 11.8656 0.828763 11.8706C0.830706 11.8744 0.83269 11.8781 0.834635 11.8818C0.835541 11.8832 0.836304 11.8845 0.836892 11.8855C0.837357 11.8862 0.837714 11.8868 0.837943 11.8872C0.837995 11.8873 0.838047 11.8873 0.838099 11.8874C0.842273 11.8943 0.845517 11.9003 0.846185 11.9016C0.847351 11.9038 0.848335 11.9057 0.848848 11.9067C0.851548 11.9119 0.854957 11.9188 0.857195 11.9234C0.862963 11.9351 0.872904 11.9555 0.888415 11.9868C0.902342 12.0139 0.916228 12.0397 0.933808 12.0716C0.934919 12.0736 0.936031 12.0757 0.937143 12.0777C0.954373 12.1089 0.974772 12.1456 1.00034 12.1913C1.02358 12.2328 1.03663 12.2753 1.02907 12.2868C1.02147 12.2982 0.995777 12.2737 0.972305 12.2321C0.947984 12.1889 0.928702 12.1546 0.911214 12.1231C0.910102 12.1211 0.90899 12.1191 0.907879 12.1171C0.889716 12.0843 0.872835 12.0534 0.85534 12.0194C0.849489 12.008 0.843539 11.9963 0.838038 11.9852C0.827896 11.9655 0.816039 11.943 0.80212 11.9163C0.799325 11.911 0.796471 11.9054 0.793531 11.8998C0.77466 11.8634 0.752898 11.8209 0.729379 11.7723C0.674675 11.6589 0.609794 11.5124 0.541813 11.3131C0.524063 11.2609 0.507102 11.2098 0.491135 11.1602C0.417506 10.9311 0.360163 10.7255 0.314513 10.5003C0.308288 10.4695 0.30287 10.4397 0.297203 10.4078C0.2808 10.3135 0.260784 10.2011 0.22086 9.98468C0.171308 9.69458 0.0709584 9.22349 0.0129999 8.37957C0.00383201 8.23574 -5.25415e-05 8.08032 5.36442e-07 7.91525C1.17272e-05 7.87645 0.000223264 7.83698 0.000641048 7.79691C0.000902772 7.77174 0.00124586 7.74639 0.00167058 7.72087C0.00579712 7.47906 0.0162949 7.21124 0.0350187 6.90433C0.0585868 6.53097 0.0843855 6.28292 0.108598 6.07568C0.109436 6.06855 0.110281 6.06143 0.111134 6.0543C0.112209 6.04546 0.113288 6.03668 0.11437 6.02799C0.150258 5.72341 0.253696 5.26212 0.377331 4.94022C0.453512 4.73936 0.517501 4.57215 0.605509 4.36265C0.649195 4.25962 0.69115 4.14928 0.762742 3.98004C0.782819 3.93276 0.805286 3.88109 0.830869 3.82428C0.948249 3.5682 1.11685 3.21032 1.4588 2.71507C1.54802 2.58703 1.6318 2.47179 1.71146 2.36777C1.73653 2.33504 1.76136 2.30323 1.78592 2.27238C1.88777 2.14442 1.98898 2.02827 2.09023 1.92871C2.17361 1.84636 2.35894 1.6642 2.57646 1.47745C2.7959 1.28712 3.03944 1.10283 3.21569 0.96814C3.23386 0.954133 3.25228 0.940155 3.27076 0.92631C3.43054 0.806267 3.6013 0.694306 3.7392 0.600532C4.17005 0.258358 5.04538 -0.0237452 5.83847 0.00158271C6.13192 0.00536606 6.40906 0.0397798 6.64995 0.0855701C6.66163 0.0877825 6.67329 0.0900395 6.68494 0.0923409C7.71617 0.301592 8.34805 0.75538 8.55806 0.890391C8.56791 0.897092 8.57686 0.90322 8.58489 0.908752C8.59206 0.913693 8.59854 0.91816 8.60425 0.922128C8.69011 0.981965 8.76416 1.03486 8.84143 1.09274C8.84564 1.09589 8.84985 1.09906 8.85406 1.10223C8.93583 1.16399 9.01865 1.22956 9.11371 1.31293C9.46536 1.62288 9.71874 1.90746 9.92524 2.16243C9.96332 2.20966 9.99984 2.25624 10.035 2.30218C10.0351 2.30231 10.0352 2.30245 10.0353 2.30258C10.1885 2.50262 10.3145 2.68754 10.4269 2.86844C10.6294 3.19649 10.7497 3.43024 10.8407 3.60974C10.8692 3.6665 10.895 3.71926 10.919 3.76939C10.9704 3.87687 11.0133 3.97161 11.0551 4.07133C11.133 4.25715 11.2012 4.43196 11.2628 4.60353C11.2683 4.6189 11.2737 4.63429 11.2791 4.64969C11.3454 4.83819 11.4044 5.02487 11.4577 5.22586C11.47 5.27238 11.4702 5.31359 11.4586 5.31756C11.4471 5.32148 11.4281 5.28688 11.4159 5.24064C11.3646 5.04647 11.3075 4.86474 11.242 4.67736C11.2366 4.66195 11.2311 4.64649 11.2256 4.63104C11.1647 4.4605 11.096 4.28333 11.0172 4.09503C10.9772 3.99939 10.9369 3.90995 10.8871 3.80537C10.8631 3.75488 10.8368 3.70081 10.807 3.64124C10.7155 3.45991 10.5944 3.22413 10.3913 2.89471C10.2809 2.71694 10.1574 2.53525 10.0057 2.33645C9.97053 2.29044 9.93391 2.24368 9.89566 2.19612C9.69025 1.94193 9.43754 1.65745 9.08665 1.34788C8.99744 1.26959 8.91994 1.20783 8.83921 1.1465C8.83471 1.14308 8.8302 1.13967 8.82569 1.13626C8.74973 1.07908 8.67246 1.02353 8.58245 0.960728C8.57048 0.952386 8.55519 0.941765 8.53669 0.92916C8.32817 0.794883 7.69908 0.342486 6.67389 0.135105C6.67073 0.134477 6.66757 0.133851 6.66441 0.133229C6.32829 0.068392 6.05944 0.0523465 5.83847 0.0514911C5.60923 0.0514193 5.43409 0.0686866 5.28541 0.0922666C5.05482 0.129655 4.88542 0.168797 4.74712 0.203843C4.72078 0.210581 4.69592 0.217189 4.67226 0.223636C4.57008 0.25158 4.49017 0.276599 4.41173 0.305592C4.17511 0.394385 4.01404 0.479103 3.83114 0.59862C3.67694 0.699811 3.48968 0.820979 3.33258 0.937199C3.33234 0.937372 3.3321 0.937545 3.33187 0.937719C3.31336 0.951361 3.29521 0.964908 3.27757 0.978279ZM1.37093 12.773C1.39651 12.8137 1.40918 12.8514 1.39878 12.8577C1.38835 12.864 1.35861 12.8362 1.33284 12.7952C1.27172 12.698 1.21263 12.5991 1.15598 12.4994C1.13214 12.4575 1.12194 12.4186 1.13279 12.4131C1.14361 12.4075 1.17129 12.4372 1.195 12.4788C1.25135 12.5779 1.31013 12.6763 1.37093 12.773ZM3.55971 1.05913C3.52285 1.08437 3.48109 1.10166 3.46604 1.0971C3.45108 1.09253 3.46863 1.06736 3.50568 1.04157C3.52527 1.02795 3.55742 1.00545 3.60118 0.97611C3.88153 0.78247 4.74768 0.263612 5.83847 0.249532C5.92665 0.247595 6.01514 0.248564 6.10357 0.252511C6.2025 0.256955 6.29144 0.26405 6.37537 0.272927C6.73182 0.319259 7.0381 0.3267 7.67915 0.603855C10.3674 1.89269 11.5043 5.00413 11.5377 7.79691C11.5381 7.82757 11.5384 7.85818 11.5385 7.88875C11.5421 8.72106 11.4354 9.55275 11.2171 10.3585C11.0599 11.0408 10.4998 12.1938 10.3269 12.4395C10.3027 12.48 10.2746 12.5069 10.2644 12.5002C10.2543 12.4935 10.2658 12.4559 10.2897 12.4158C10.4603 12.1733 11.0162 11.0304 11.1726 10.354C11.39 9.55378 11.497 8.7276 11.4943 7.90045C11.4942 7.86599 11.4939 7.83148 11.4935 7.79691C11.4606 5.01021 10.267 1.94233 7.63569 0.691262C7.01557 0.423794 6.73827 0.365724 6.38534 0.318495C6.30208 0.309404 6.21379 0.302074 6.11476 0.297313C6.02258 0.292915 5.93033 0.291798 5.83847 0.29387C4.7819 0.308523 3.94104 0.80098 3.65861 0.99241C3.61368 1.02203 3.58033 1.04501 3.55971 1.05913ZM1.97882 2.47728C1.66337 2.88418 1.27855 3.512 1.02473 4.10023C0.898348 4.38687 0.798536 4.659 0.726429 4.88147C0.616245 5.2241 0.55219 5.44324 0.491907 5.66099C0.491274 5.66333 0.49064 5.66566 0.490009 5.668C0.431497 5.88592 0.375865 6.10675 0.324342 6.47102C0.274904 6.82123 0.240313 7.30448 0.248148 7.79691C0.248492 7.8217 0.248929 7.84649 0.249455 7.87125C0.249458 7.87166 0.249461 7.87206 0.249464 7.87246C0.259169 8.3877 0.338955 8.90513 0.394582 9.27608C0.59182 10.5736 0.909913 11.3318 1.05417 11.7152C1.31672 12.3894 1.79764 13.0606 2.26098 13.6359C2.30812 13.7035 2.18845 13.6263 2.09666 13.5051C2.0933 13.5008 2.08994 13.4964 2.08659 13.4921C2.0547 13.4511 2.02664 13.4147 1.98755 13.3643C1.92993 13.2917 1.88749 13.2371 1.8493 13.1872C1.73092 13.0679 1.12579 12.0911 1.00105 11.7028C0.866406 11.3376 0.499029 10.6082 0.297575 9.28694C0.242587 8.91817 0.215942 8.40299 0.205483 7.88377C0.205453 7.88235 0.205423 7.88093 0.205394 7.8795C0.204789 7.85202 0.204295 7.82448 0.203914 7.79691C0.196108 7.30798 0.230322 6.82127 0.280546 6.46563C0.334136 6.08644 0.393293 5.85444 0.453346 5.63309C0.453942 5.63094 0.454539 5.6288 0.455137 5.62665C0.515754 5.40973 0.577703 5.20015 0.684305 4.86851C0.758348 4.64001 0.86001 4.36347 0.988245 4.07355C1.24313 3.48527 1.62526 2.86266 1.93939 2.45626C1.96749 2.41921 1.9994 2.39442 2.0102 2.40038C2.02098 2.40637 2.00673 2.44055 1.97882 2.47728ZM2.1902 2.65301C1.38445 3.78579 0.879372 5.12956 0.64069 6.49974C0.591875 6.84117 0.548015 7.31525 0.54575 7.79691C0.545577 7.82256 0.545502 7.8482 0.545528 7.8738C0.545518 7.87954 0.545514 7.88528 0.545514 7.89101C0.545674 8.39276 0.591922 8.89168 0.645152 9.24564C0.8383 10.51 1.16891 11.2392 1.30784 11.6095C1.44567 11.954 1.50027 12.0433 1.57359 12.1765C1.57562 12.1801 1.57767 12.1837 1.57971 12.1874C1.57988 12.1876 1.58005 12.1878 1.58022 12.188C1.5833 12.1923 1.58577 12.196 1.58701 12.1979C1.58955 12.2017 1.59151 12.205 1.59225 12.2062C1.59394 12.2089 1.59531 12.2113 1.5958 12.2121C1.5978 12.2156 1.60005 12.2195 1.60149 12.2221C1.61488 12.2459 1.65629 12.3196 1.69007 12.3783C1.72451 12.4385 1.74843 12.4809 1.77438 12.5264C1.777 12.5309 1.77961 12.5355 1.78224 12.5401C1.8057 12.5808 1.83105 12.6245 1.87012 12.6871C1.89384 12.7251 1.90285 12.7574 1.8898 12.7598C1.87676 12.7622 1.84657 12.7333 1.82277 12.695C1.78175 12.6288 1.75461 12.5818 1.73103 12.5405C1.72843 12.5359 1.72583 12.5313 1.72323 12.5267C1.69856 12.4831 1.67723 12.4451 1.6466 12.3915C1.60148 12.3143 1.56856 12.2572 1.53853 12.2042C1.46207 12.0656 1.39913 11.9617 1.25528 11.5983C1.12507 11.2442 0.797966 10.5311 0.601654 9.25274C0.548039 8.89645 0.501589 8.39464 0.501443 7.89108C0.501423 7.88516 0.501408 7.87924 0.501399 7.87332C0.501375 7.84787 0.501449 7.8224 0.501621 7.79691C0.503897 7.31263 0.548026 6.83674 0.596957 6.49428C0.794965 5.09492 1.27046 3.73544 2.15084 2.63191C2.30671 2.4257 2.46098 2.24786 2.61244 2.09007C3.05876 1.62875 3.45927 1.34331 3.85466 1.09623C3.94194 1.0435 4.17542 0.908533 4.53977 0.778362C4.64658 0.74049 4.76512 0.703352 4.89512 0.670019C5.16302 0.601286 5.48095 0.548925 5.83847 0.542937C5.90615 0.541797 5.97487 0.542307 6.04455 0.544627C6.13619 0.547684 6.21975 0.553375 6.29803 0.560752C6.63154 0.600441 6.90578 0.626242 7.5053 0.878001C8.26242 1.16556 9.27915 2.10301 9.67409 2.71449C9.88431 3.01193 9.98417 3.19182 10.0555 3.31803C10.0752 3.35344 10.0922 3.38485 10.1077 3.41381C10.148 3.48925 10.178 3.54747 10.2177 3.62504C10.4967 4.18605 10.6677 4.58996 10.8761 5.28169C10.8887 5.32497 10.8897 5.36524 10.8788 5.37164C10.8679 5.37801 10.8493 5.34812 10.8368 5.30521C10.6301 4.61565 10.4583 4.20723 10.1768 3.64201C10.1356 3.56147 10.1037 3.49975 10.0626 3.42323C10.0474 3.3949 10.031 3.3648 10.0124 3.33145C9.94257 3.20826 9.84421 3.03134 9.6363 2.73746C9.24419 2.13102 8.23634 1.20308 7.48941 0.91921C6.90183 0.672174 6.63609 0.64633 6.30743 0.606095C6.22985 0.598522 6.147 0.592615 6.05537 0.58927C5.98198 0.586602 5.90964 0.585968 5.83847 0.587178C5.48934 0.593079 5.17847 0.643735 4.91634 0.710266C4.78781 0.742863 4.67073 0.77923 4.56537 0.816262C4.19749 0.947139 3.98048 1.07406 3.90608 1.11767C3.49888 1.36761 3.08471 1.66361 2.63856 2.12662C2.49 2.28182 2.34024 2.45494 2.1902 2.65301ZM11.1997 7.85499C11.1996 7.83313 11.2016 7.81264 11.2052 7.79691C11.209 7.77999 11.2145 7.76858 11.2208 7.76688C11.2282 7.7649 11.235 7.77687 11.2393 7.79691C11.242 7.80971 11.2437 7.82579 11.2439 7.84356C11.2458 8.08393 11.2401 8.25641 11.2343 8.39159C11.2225 8.64132 11.2119 8.76199 11.1911 8.94168C11.1359 9.40579 11.0477 9.84894 10.9433 10.2405C10.7709 10.8922 10.5529 11.3982 10.4283 11.659C10.4087 11.7002 10.3838 11.7285 10.373 11.7229C10.3622 11.7171 10.3696 11.6797 10.389 11.6389C10.512 11.3813 10.7274 10.8819 10.8989 10.2359C11.0033 9.84595 11.0917 9.40352 11.147 8.93866C11.1671 8.7652 11.1773 8.65176 11.1893 8.40871C11.1953 8.27443 11.2015 8.10064 11.1997 7.85499ZM9.84415 12.5487C9.80356 12.6076 9.76419 12.6884 9.7172 12.7419C9.71654 12.7426 9.71588 12.7434 9.71523 12.7441C9.69608 12.766 9.67529 12.7874 9.64993 12.8131C9.6467 12.8164 9.64338 12.8197 9.64 12.8232C9.60987 12.8536 9.57326 12.8903 9.52352 12.9413C9.35752 13.1111 9.25002 13.2614 9.2161 13.3087C9.14798 13.4032 9.06434 13.4942 8.94443 13.6124C8.93347 13.6232 8.92217 13.6341 8.9106 13.6454C8.90121 13.6545 8.88663 13.6548 8.878 13.6462C8.86939 13.6376 8.86996 13.6234 8.87926 13.6144C8.89051 13.6035 8.90144 13.5928 8.91207 13.5823C8.91212 13.5823 8.91217 13.5822 8.91222 13.5822C9.03197 13.4641 9.11316 13.3758 9.17921 13.2842C9.21368 13.2362 9.32304 13.0834 9.49204 12.9105C9.542 12.8593 9.5787 12.8224 9.60884 12.792C9.61213 12.7886 9.61535 12.7854 9.61847 12.7822C9.61854 12.7822 9.61861 12.7821 9.61869 12.782C9.64407 12.7563 9.66382 12.7359 9.68205 12.7152C9.68243 12.7147 9.68281 12.7143 9.68319 12.7138C9.73043 12.66 9.76835 12.581 9.80748 12.5242C9.81499 12.5134 9.82929 12.51 9.83944 12.5167C9.84958 12.5234 9.85169 12.5378 9.84415 12.5487ZM5.97983 15.1432C5.93892 15.1542 5.88929 15.1585 5.83847 15.1581C5.8037 15.1578 5.76854 15.1553 5.73535 15.1515C5.65286 15.1423 5.57942 15.1246 5.54513 15.1141C5.51164 15.1039 5.47424 15.0983 5.42943 15.0923C5.41916 15.0909 5.40852 15.0895 5.39753 15.088C5.36127 15.083 5.32079 15.077 5.27701 15.0674C5.11618 15.032 5.01229 15.0088 4.93748 14.9934C4.92212 14.9902 4.90783 14.9873 4.89445 14.9844C4.89443 14.9844 4.89441 14.9844 4.89438 14.9844C4.84391 14.9736 4.80636 14.9647 4.77347 14.9507C4.71498 14.9257 4.66786 14.9037 4.61362 14.8705C4.53881 14.825 4.42494 14.7875 4.34613 14.7723C4.34181 14.7715 4.33737 14.7706 4.3329 14.7698C4.2758 14.7588 4.2052 14.7446 4.10407 14.7095C4.02009 14.6803 3.95088 14.6453 3.89117 14.6118C3.87407 14.6022 3.85789 14.5928 3.84239 14.5837C3.8032 14.5606 3.76865 14.5396 3.73487 14.5215C3.52571 14.4091 3.41744 14.3229 3.35374 14.2645C3.3048 14.219 3.28226 14.1876 3.26596 14.165C3.26105 14.1582 3.25675 14.1521 3.25249 14.1467C3.21456 14.0982 3.17607 14.0595 3.13053 14.012C3.12045 14.0014 3.11001 13.9904 3.09919 13.9788C3.06299 13.9399 3.03239 13.9158 3.00692 13.8983C2.99579 13.8906 2.9857 13.8842 2.97617 13.8781C2.97599 13.878 2.97581 13.8779 2.97563 13.8778C2.9743 13.8769 2.97299 13.8761 2.97168 13.8753C2.9707 13.8746 2.96968 13.874 2.9687 13.8734C2.96821 13.8733 2.96781 13.8731 2.96749 13.873C2.96725 13.8729 2.96706 13.8728 2.96693 13.8728C2.96691 13.8728 2.96688 13.8728 2.96685 13.8728C2.96463 13.872 2.96298 13.871 2.96265 13.8708C2.96205 13.8705 2.96156 13.8701 2.96131 13.8699C2.95996 13.869 2.95831 13.8678 2.95723 13.8669C2.95444 13.8647 2.94966 13.8608 2.94234 13.8547C2.93566 13.8497 2.92895 13.8452 2.92054 13.8396C2.92 13.8393 2.91947 13.8389 2.91894 13.8386C2.91074 13.8331 2.90116 13.8267 2.88944 13.8182C2.87878 13.8105 2.87566 13.796 2.88248 13.7859C2.8893 13.7757 2.90339 13.7738 2.91397 13.7814C2.92492 13.7893 2.93383 13.7953 2.94198 13.8007C2.9425 13.801 2.94302 13.8014 2.94354 13.8017C2.95204 13.8074 2.96008 13.8127 2.96832 13.8189C2.97108 13.821 2.97388 13.8232 2.97648 13.8252C2.98134 13.8288 2.98706 13.8325 2.99399 13.8369C2.99538 13.8378 2.9968 13.8388 2.99827 13.8397C3.00771 13.8457 3.01872 13.8527 3.03073 13.861C3.05887 13.8803 3.09239 13.9069 3.13146 13.9489C3.1417 13.9598 3.15171 13.9704 3.16153 13.9806C3.20691 14.028 3.24782 14.0692 3.28787 14.1203C3.29336 14.1273 3.29838 14.1343 3.30379 14.1418C3.31983 14.164 3.33902 14.1907 3.38385 14.2323C3.44405 14.2875 3.5486 14.3712 3.75462 14.4821C3.78974 14.5008 3.82625 14.5231 3.86574 14.5463C3.8808 14.5552 3.89629 14.5641 3.91219 14.573C3.97042 14.6057 4.0368 14.6392 4.1171 14.6672C4.21499 14.7012 4.283 14.7149 4.33931 14.7258C4.34126 14.7262 4.34321 14.7266 4.34516 14.7269C4.34757 14.7274 4.34997 14.7278 4.35235 14.7283C4.43552 14.7444 4.55544 14.7836 4.6373 14.8334C4.68867 14.8648 4.7333 14.8856 4.79087 14.9103C4.81921 14.9223 4.85098 14.9299 4.8999 14.9404C4.91365 14.9433 4.92874 14.9466 4.9455 14.9501C5.02084 14.9656 5.12518 14.9888 5.28607 15.0243C5.32802 15.0335 5.36633 15.0392 5.40199 15.0441C5.41308 15.0456 5.42398 15.0471 5.43466 15.0485C5.47922 15.0545 5.52049 15.0605 5.55885 15.0722C5.5904 15.0818 5.66072 15.0989 5.7401 15.1077C5.77259 15.1114 5.80607 15.1137 5.83847 15.1139C5.88561 15.1143 5.93016 15.1104 5.96573 15.1009C5.97197 15.0992 5.97826 15.0976 5.98453 15.0959C6.03869 15.0813 6.09348 15.0652 6.136 15.0405C6.32282 14.8948 6.66994 14.8901 6.89923 14.8322C6.90221 14.8314 6.9052 14.8307 6.90818 14.83C7.17054 14.7667 7.35255 14.6879 7.41411 14.662C7.41699 14.6608 7.41961 14.6597 7.42197 14.6587C7.42407 14.6578 7.42596 14.6569 7.42763 14.6562C7.45278 14.6454 7.47436 14.6343 7.49681 14.6225C7.49804 14.6218 7.49926 14.6212 7.50049 14.6206C7.52422 14.6081 7.54907 14.5949 7.57923 14.5808C7.69117 14.5287 7.77946 14.4796 7.85474 14.4352C7.86871 14.4269 7.8822 14.4189 7.89528 14.411C7.89532 14.411 7.89536 14.4109 7.8954 14.4109C7.95281 14.3761 8.0034 14.3438 8.05132 14.3139C8.13902 14.259 8.19516 14.2174 8.2383 14.184C8.2518 14.1736 8.2642 14.1637 8.27572 14.1545C8.30069 14.1344 8.32237 14.1166 8.34533 14.0991C8.38861 14.0659 8.42642 14.0335 8.4635 14.0009C8.4668 13.9979 8.47011 13.9951 8.47341 13.9921C8.51365 13.9566 8.55259 13.9213 8.59557 13.8854C8.60553 13.8771 8.62015 13.8777 8.62821 13.8868C8.63626 13.8959 8.63465 13.9102 8.6246 13.9186C8.5825 13.9539 8.54423 13.9885 8.50365 14.0244C8.50031 14.0273 8.49697 14.0303 8.49361 14.0333C8.45631 14.0661 8.41747 14.0994 8.37299 14.1334C8.35066 14.1505 8.33001 14.1674 8.30532 14.1873C8.29356 14.1968 8.28076 14.207 8.2664 14.2181C8.22222 14.2523 8.16486 14.2949 8.07549 14.3509C8.02772 14.3807 7.97732 14.4128 7.9194 14.448C7.9061 14.456 7.8924 14.4642 7.87813 14.4727C7.80194 14.5176 7.71234 14.5674 7.59867 14.6205C7.5699 14.6339 7.5461 14.6465 7.52223 14.659C7.52089 14.6597 7.51955 14.6604 7.51821 14.6611C7.49572 14.673 7.47275 14.6848 7.44591 14.6964C7.44233 14.6979 7.43774 14.6999 7.43224 14.7022C7.36995 14.7284 7.18537 14.8084 6.91922 14.8727C6.9184 14.8729 6.91757 14.8731 6.91674 14.8733C6.73841 14.9155 6.63663 14.9306 6.5623 14.9557C6.50354 14.9752 6.45823 14.9845 6.42117 14.991C6.41409 14.9922 6.40738 14.9934 6.40098 14.9944C6.37331 14.999 6.3514 15.0023 6.32975 15.0081C6.26423 15.0253 6.21805 15.045 6.16143 15.078C6.11358 15.1058 6.05278 15.1237 5.99884 15.1381C5.99876 15.1382 5.99868 15.1382 5.9986 15.1382C5.99224 15.1399 5.98597 15.1416 5.97983 15.1432ZM2.73036 13.7109C2.72105 13.7014 2.72044 13.6868 2.72897 13.6781C2.73753 13.6694 2.75194 13.67 2.76118 13.6794C2.78313 13.7016 2.80549 13.7238 2.82787 13.7457C2.83726 13.7549 2.83818 13.7695 2.82987 13.7784C2.82155 13.7873 2.80706 13.787 2.79758 13.7777C2.77501 13.7557 2.75249 13.7332 2.73036 13.7109ZM6.04596 15.3601C6.03234 15.3632 6.0183 15.3561 6.01471 15.3443C6.01115 15.3325 6.01926 15.3205 6.03273 15.3175C6.03985 15.3158 6.05156 15.3129 6.06724 15.3089C6.18087 15.2808 6.49722 15.1903 6.81922 15.0916C6.84648 15.0834 6.87077 15.0757 6.89384 15.0681C6.99249 15.0351 7.06387 14.9844 7.24962 14.9209C8.02871 14.6515 8.76376 14.1923 9.30364 13.5512C9.45915 13.3668 9.61039 13.1805 9.75433 12.987C9.87634 12.8275 10.0956 12.5295 10.1412 12.4548C10.1486 12.4433 10.163 12.4391 10.1734 12.4455C10.1838 12.4519 10.1861 12.4665 10.1787 12.4781C10.1331 12.5527 9.91335 12.8516 9.79107 13.0115C9.64654 13.2059 9.49465 13.3932 9.33839 13.5786C8.79655 14.223 8.08189 14.7359 7.28123 15.0131C7.09259 15.0777 7.00814 15.0764 6.90924 15.1095C6.88589 15.1172 6.86122 15.1251 6.83343 15.1334C6.51265 15.2318 6.19827 15.3223 6.08221 15.3511C6.06588 15.3553 6.05357 15.3583 6.04596 15.3601ZM5.39413 15.3238C5.23803 15.3119 5.0186 15.2711 4.83135 15.2203C4.73991 15.1959 4.6559 15.1701 4.58887 15.149C4.48501 15.1161 4.42357 15.0836 4.36344 15.051C4.36279 15.0507 4.36215 15.0503 4.3615 15.05C4.30151 15.0171 4.24212 14.984 4.14181 14.9401C4.0407 14.8959 3.89901 14.8387 3.75916 14.7726C3.75905 14.7726 3.75895 14.7725 3.75884 14.7725C3.61987 14.7073 3.47026 14.6519 3.37571 14.589C3.04684 14.3688 2.88272 14.1843 2.80547 14.0883C2.67169 13.9191 2.46574 13.7852 2.35647 13.5901C2.34881 13.5647 2.4006 13.5714 2.42355 13.6096C2.42444 13.6109 2.42533 13.6122 2.42622 13.6136C2.43472 13.6262 2.44231 13.6371 2.45393 13.6515C2.47154 13.6718 2.48553 13.6862 2.49826 13.6992C2.53005 13.7348 2.76453 13.9697 2.841 14.062C2.91432 14.1527 3.10556 14.2906 3.42935 14.5075C3.51998 14.5679 3.63763 14.6667 3.7766 14.732C3.77698 14.7322 3.77736 14.7323 3.77774 14.7325C3.91531 14.7976 4.05699 14.8549 4.15882 14.8994C4.26175 14.9444 4.32326 14.9787 4.38348 15.0117C4.38406 15.012 4.38465 15.0124 4.38523 15.0127C4.44427 15.0447 4.50233 15.0753 4.60136 15.1067C4.66919 15.1282 4.75336 15.1539 4.84449 15.1781C5.02909 15.2281 5.24325 15.268 5.39644 15.2798C5.41024 15.2809 5.42099 15.2916 5.42044 15.3038C5.41987 15.316 5.40809 15.325 5.39413 15.3238ZM5.36263 15.5967C4.89183 15.598 4.42278 15.4595 4.02268 15.2343C3.91332 15.1868 3.7637 15.1142 3.61933 15.0336C3.6177 15.0326 3.61607 15.0317 3.61445 15.0308C3.47149 14.9513 3.33419 14.8644 3.23734 14.8C2.89293 14.5696 2.70585 14.3945 2.62399 14.2945C2.5487 14.2 2.52497 14.1774 2.48913 14.1446C2.48817 14.1437 2.48721 14.1428 2.48624 14.1419C2.48615 14.1418 2.48606 14.1418 2.48598 14.1418C2.48436 14.141 2.48311 14.1403 2.48249 14.14C2.48121 14.1392 2.48026 14.1384 2.4799 14.1382C2.47908 14.1375 2.47843 14.1369 2.4782 14.1367C2.47725 14.1359 2.47619 14.1349 2.47552 14.1343C2.4693 14.1282 2.45029 14.1088 2.43585 14.0927C2.42102 14.0761 2.41139 14.0636 2.40127 14.0503C2.40025 14.0489 2.39923 14.0476 2.39821 14.0462C2.38913 14.0342 2.37927 14.0211 2.36453 14.0027C2.35555 13.9915 2.35618 13.9765 2.36588 13.9691C2.37558 13.9618 2.39061 13.9648 2.39952 13.9759C2.41491 13.9951 2.42533 14.0089 2.4344 14.0209C2.4354 14.0223 2.43641 14.0236 2.43741 14.0249C2.44701 14.0376 2.45557 14.0486 2.4686 14.0631C2.48817 14.0834 2.50345 14.0976 2.51744 14.1106C2.55426 14.1444 2.58144 14.1703 2.65983 14.2685C2.73712 14.3626 2.91732 14.5326 3.26104 14.7628C3.35728 14.8269 3.4936 14.9131 3.63522 14.9919C3.63688 14.9928 3.63855 14.9938 3.64021 14.9947C3.78342 15.0747 3.93148 15.1466 4.03962 15.1936C4.46214 15.3779 4.9065 15.4725 5.3648 15.5527C5.45028 15.5598 5.52832 15.5649 5.60078 15.568C5.68719 15.5717 5.76541 15.5727 5.83847 15.5704C5.94571 15.567 6.04073 15.5565 6.13184 15.5347C6.16523 15.5265 6.25404 15.516 6.38056 15.4945C6.41772 15.4882 6.45835 15.4809 6.50203 15.4723C6.60922 15.4512 6.73534 15.4223 6.87463 15.3816C6.90382 15.373 6.92984 15.3649 6.95454 15.3571C7.05997 15.3226 7.14314 15.2962 7.34302 15.2284C7.59008 15.148 7.98858 14.9714 8.19202 14.8582C8.29489 14.8031 8.35222 14.771 8.39331 14.7487C8.40473 14.7425 8.4148 14.737 8.42402 14.7319C8.44816 14.7187 8.46658 14.7084 8.49031 14.6938C8.66065 14.5877 8.77126 14.5002 8.94145 14.3469C8.95208 14.3373 8.96766 14.3364 8.97628 14.3451C8.98491 14.3537 8.98326 14.3687 8.97255 14.3784C8.80089 14.5331 8.68778 14.6227 8.51374 14.7311C8.48879 14.7465 8.46884 14.7576 8.44409 14.7712C8.43493 14.7762 8.42513 14.7816 8.41421 14.7875C8.37348 14.8096 8.31627 14.8417 8.21309 14.8969C8.00833 15.0109 7.60689 15.1889 7.35827 15.2698C7.15849 15.3376 7.07615 15.3637 6.97012 15.3985C6.94513 15.4064 6.91875 15.4147 6.88902 15.4234C6.74822 15.4647 6.62056 15.494 6.51226 15.5153C6.46822 15.524 6.4273 15.5314 6.38994 15.5378C6.2596 15.5599 6.17527 15.5699 6.14646 15.577C6.05085 15.6 5.95045 15.611 5.83847 15.6146C5.76316 15.6169 5.68309 15.6158 5.59573 15.612C5.52337 15.6088 5.44619 15.6037 5.36263 15.5967ZM9.54591 13.7886C9.53667 13.7995 9.52134 13.8021 9.51176 13.7945C9.5022 13.787 9.50197 13.772 9.51113 13.7613C9.55961 13.7042 9.59354 13.662 9.61985 13.629C9.66816 13.5681 9.69103 13.5381 9.72762 13.4951C9.82144 13.3845 9.90825 13.274 9.98368 13.1729C10.1093 13.0047 10.2034 12.8627 10.2545 12.7881C10.2625 12.7764 10.2772 12.7723 10.2873 12.779C10.2975 12.7857 10.2992 12.8007 10.2912 12.8125C10.2402 12.887 10.1462 13.0287 10.0204 13.1974C9.94444 13.2993 9.85688 13.4109 9.76188 13.5229C9.72616 13.5649 9.70441 13.5934 9.6569 13.6534C9.63052 13.6865 9.596 13.7296 9.54591 13.7886ZM9.4378 12.7493C9.35464 12.8061 9.25493 12.8723 9.18575 12.9011C9.15451 12.9333 9.13492 12.8453 9.31516 12.9762C9.40165 13.128 9.34465 13.0706 9.36631 13.0469C9.36677 13.0453 9.36726 13.0437 9.36776 13.042C9.38509 12.9837 9.41542 12.9156 9.46344 12.8222C9.46987 12.8096 9.47501 12.8002 9.48132 12.7884C9.54038 12.6779 9.61382 12.5528 9.73089 12.3658C9.77032 12.3034 9.81175 12.2381 9.85474 12.1706C10.218 11.6186 10.3508 11.0689 10.3601 10.8754C10.42 10.4544 10.2743 9.89725 9.8971 9.46508C9.86456 9.42459 9.83094 9.38416 9.79689 9.34407C9.76922 9.31149 9.75403 9.27885 9.76266 9.27019C9.77127 9.26154 9.80043 9.28019 9.82825 9.31292C9.86176 9.35234 9.89491 9.39205 9.92705 9.43192C9.92719 9.4321 9.92734 9.43228 9.92749 9.43246C10.3111 9.87092 10.4619 10.4364 10.4065 10.8575C10.3997 11.0589 10.2637 11.6301 9.89264 12.1933C9.84652 12.2659 9.80381 12.3331 9.76033 12.4023C9.64513 12.5863 9.56789 12.7199 9.51293 12.8238C9.50761 12.8336 9.5008 12.8469 9.49511 12.8581C9.49497 12.8584 9.49483 12.8587 9.49469 12.8589C9.45033 12.9453 9.42089 13.0162 9.40888 13.0588C9.40866 13.0596 9.40845 13.0604 9.40824 13.0611C9.38138 13.0845 9.47279 13.1101 9.31822 12.9183C9.10178 12.8079 9.15398 12.8889 9.17446 12.8583C9.23849 12.8304 9.33421 12.7668 9.41374 12.7123C9.44454 12.6913 9.47566 12.6812 9.4824 12.6913C9.48937 12.7013 9.46904 12.728 9.4378 12.7493ZM4.2542 4.96988C4.09507 5.12197 3.87971 5.31696 3.6969 5.49853C3.51233 5.68018 3.35229 5.8532 3.27687 5.93443C3.20297 6.01382 3.12732 6.10725 3.04158 6.22216C3.02194 6.24849 3.00172 6.27604 2.98111 6.3045C2.91282 6.39878 2.83893 6.50489 2.75881 6.62182C2.56741 6.90196 2.43452 7.12681 2.33113 7.30583C2.27591 7.40028 2.2289 7.48352 2.18828 7.55716C2.16434 7.60056 2.14227 7.64128 2.12185 7.67938C2.12181 7.67944 2.12178 7.6795 2.12174 7.67957C2.04454 7.8237 1.98916 7.93279 1.93433 8.0316C1.83695 8.20815 1.76079 8.35462 1.67152 8.53703C1.5465 8.78594 1.43257 9.18587 1.43219 9.46652C1.43188 9.48187 1.43176 9.49754 1.4318 9.51334C1.4341 9.67182 1.44405 9.86899 1.54063 10.119C1.5647 10.182 1.59567 10.2501 1.6353 10.3204C1.79513 10.5976 1.98985 10.7694 2.14558 10.9196C2.19141 10.9626 2.23488 11.0026 2.27589 11.0402C2.38069 11.1361 2.47331 11.22 2.56125 11.2981C3.1048 11.7805 3.36913 12.1046 3.53198 12.3103C3.65579 12.4698 3.71619 12.5648 3.76117 12.6346C3.77494 12.6561 3.78576 12.6735 3.79698 12.6906C3.82273 12.7301 3.84857 12.7692 3.8749 12.8086C3.94691 12.9176 4.00798 13.0156 4.0588 13.13C4.07294 13.1626 4.08601 13.1973 4.09521 13.2305C4.12554 13.3458 4.10718 13.3648 4.10825 13.3724C4.10714 13.3771 4.10398 13.384 4.0969 13.3923C4.09677 13.3925 4.09665 13.3926 4.09651 13.3928C4.0955 13.3939 4.09439 13.3951 4.09321 13.3964C4.09232 13.3973 4.09142 13.3983 4.09042 13.3992C4.09012 13.3997 4.08981 13.4002 4.08959 13.4005C4.08942 13.4007 4.08927 13.4009 4.08918 13.4011C4.08917 13.4011 4.08916 13.4011 4.08915 13.4011C4.08748 13.4034 4.08554 13.4052 4.08518 13.4055C4.08454 13.4061 4.08393 13.4066 4.08362 13.4069C4.08199 13.4082 4.07966 13.4099 4.07801 13.411C4.07374 13.4138 4.06634 13.4188 4.05062 13.4268C4.0379 13.4336 4.02421 13.4408 4.00396 13.4494C4.00268 13.45 4.00139 13.4505 4.00009 13.4511C3.98146 13.4589 3.95614 13.4683 3.92225 13.4775C3.89193 13.4859 3.85867 13.4825 3.85229 13.4713C3.84577 13.46 3.86827 13.4457 3.89813 13.438C3.92829 13.4302 3.95251 13.422 3.97092 13.4148C3.97211 13.4143 3.97328 13.4138 3.97444 13.4134C3.99334 13.4058 4.01121 13.3975 4.02565 13.3899C4.03044 13.3874 4.03558 13.3846 4.03982 13.3822C4.04737 13.3776 4.0544 13.3723 4.06014 13.3667C4.06134 13.3656 4.06248 13.3645 4.0635 13.3634C4.07018 13.3563 4.07203 13.3506 4.07041 13.3502C4.0602 13.3548 4.08376 13.3562 4.04974 13.2328C4.03997 13.2007 4.02878 13.1716 4.01432 13.1391C3.96793 13.0366 3.90942 12.9414 3.83926 12.836C3.80556 12.786 3.7726 12.7365 3.73994 12.6867C3.72568 12.6649 3.71124 12.6425 3.6965 12.6196C3.65278 12.552 3.60062 12.4707 3.48623 12.3239C3.33155 12.1294 3.0752 11.8138 2.53698 11.3356C2.44505 11.2538 2.34626 11.1644 2.23948 11.0667C2.19934 11.0298 2.15719 10.991 2.11377 10.9503C1.9594 10.8015 1.76914 10.6329 1.60651 10.3594C1.56064 10.2807 1.52527 10.2038 1.49745 10.1306C1.40588 9.89439 1.3918 9.70496 1.3871 9.54789C1.38695 9.54066 1.38683 9.53361 1.38675 9.52652C1.38667 9.51773 1.38664 9.50898 1.38667 9.50031C1.38206 9.19265 1.5054 8.7617 1.64617 8.48579C1.73319 8.31095 1.80688 8.16985 1.90442 7.99394C1.95268 7.90746 1.99997 7.81379 2.07574 7.67189C2.09706 7.63204 2.12062 7.58856 2.14713 7.54046C2.18864 7.46515 2.23667 7.38007 2.29362 7.28263C2.39796 7.10197 2.53291 6.87364 2.72736 6.58956C2.80539 6.4759 2.8764 6.37391 2.94463 6.27966C2.96576 6.25048 2.98682 6.2218 3.0076 6.19396C3.09418 6.07794 3.17888 5.97266 3.26517 5.8808C3.33596 5.80522 3.49223 5.63739 3.67332 5.45968C3.85509 5.27991 4.0559 5.09824 4.19562 4.96308C4.21011 4.94898 4.22503 4.93466 4.23969 4.92067C4.36656 4.79942 4.50175 4.68107 4.60676 4.58008C4.64154 4.54253 4.67933 4.50482 4.72136 4.46619C5.2218 4.00129 6.20591 3.55984 6.93485 3.4115C6.94528 3.40921 6.9557 3.40698 6.96611 3.40478C7.68023 3.23327 8.40333 3.36567 8.69417 3.69212C8.76668 3.76321 8.81317 3.82634 8.845 3.87249C8.85241 3.88332 8.85863 3.89273 8.86431 3.90151C8.86935 3.9093 8.87384 3.91638 8.87774 3.92267C8.93647 4.01806 8.97654 4.10201 9.01298 4.192C9.01496 4.19694 9.01695 4.20195 9.0188 4.20666C9.05523 4.29962 9.08658 4.40055 9.11186 4.5152C9.20169 4.94679 9.20452 5.2793 9.21138 5.56734C9.21212 5.62009 9.21239 5.67266 9.2124 5.72215C9.2124 5.72229 9.21239 5.72244 9.21239 5.72259C9.21227 5.94249 9.20701 6.13554 9.19963 6.31774C9.18565 6.64957 9.17641 6.87106 9.17171 7.04303C9.17017 7.09693 9.16893 7.14662 9.16786 7.19328C9.16555 7.29442 9.16394 7.38226 9.16165 7.47271C9.15738 7.64282 9.15753 7.79805 9.16078 7.94982C9.16107 7.96317 9.16136 7.97689 9.16171 7.9904C9.16268 8.02864 9.16386 8.06644 9.16524 8.10392C9.16974 8.21017 9.18517 8.30967 9.21383 8.41169C9.2225 8.44252 9.22184 8.47101 9.21051 8.4756C9.19926 8.48021 9.1812 8.45831 9.17203 8.42603C9.1421 8.32026 9.12571 8.21657 9.121 8.10432C9.11977 8.07119 9.11869 8.03724 9.11778 8.00277C9.11741 7.98913 9.11705 7.97536 9.11674 7.96158C9.11331 7.80993 9.11309 7.65111 9.1174 7.47756C9.11959 7.39022 9.12107 7.30714 9.12329 7.20784C9.12435 7.16061 9.12559 7.10957 9.12721 7.05268C9.13194 6.87803 9.14128 6.65354 9.15542 6.31896C9.16271 6.13922 9.168 5.94909 9.16826 5.73016C9.16829 5.68043 9.16801 5.62784 9.1673 5.57457C9.1607 5.28741 9.15794 4.95474 9.06932 4.52719C9.0459 4.42076 9.01758 4.32716 8.98272 4.23605C8.98077 4.23097 8.97881 4.22591 8.97683 4.22086C8.94219 4.13349 8.9021 4.04704 8.84252 3.94961C8.83455 3.93669 8.82427 3.9204 8.81113 3.90106C8.78005 3.85566 8.73459 3.79348 8.66336 3.72364C8.38407 3.40957 7.68144 3.2785 6.97306 3.44838C6.97023 3.44897 6.96741 3.44956 6.96459 3.45016C6.36184 3.58798 6.05319 3.73631 5.82301 3.84829C5.64291 3.9403 5.51037 4.01114 5.40175 4.07009C5.38108 4.08134 5.36159 4.09207 5.34304 4.10234C5.26262 4.1469 5.20001 4.1831 5.13886 4.22225C4.98268 4.32265 4.86969 4.40848 4.75351 4.51096C4.73123 4.53065 4.71013 4.55008 4.68883 4.57023C4.57082 4.68143 4.42276 4.81013 4.29809 4.9281C4.2979 4.92827 4.29771 4.92845 4.29752 4.92863C4.2827 4.94261 4.26841 4.95622 4.2542 4.96988ZM3.40049 13.5385C3.36165 13.5366 3.33087 13.5245 3.33198 13.5124C3.33312 13.5002 3.36541 13.4926 3.40374 13.4946C3.49492 13.4992 3.58603 13.5005 3.67273 13.4969C3.70988 13.4953 3.73903 13.5028 3.73982 13.515C3.74054 13.5271 3.71171 13.5394 3.67364 13.5409C3.58521 13.5446 3.49274 13.5433 3.40049 13.5385ZM4.52624 5.03204C4.49685 5.05829 4.46088 5.07741 4.4464 5.0738C4.43191 5.07023 4.44397 5.04533 4.47386 5.0184C4.48947 5.00432 4.51509 4.98101 4.55037 4.94979C4.62037 4.88781 4.72861 4.79444 4.87012 4.68478C5.23841 4.40298 5.84398 4.00965 6.5531 3.7592C6.63571 3.73019 6.70994 3.70603 6.78215 3.68423C7.09003 3.60786 7.33439 3.46084 7.97953 3.53839C8.18851 3.57535 8.40453 3.66337 8.5657 3.82357C9.42871 5.19704 8.82233 6.70372 8.9108 8.10866C8.86293 9.04481 9.96484 9.45485 10.1364 10.4516C10.2121 11.0453 9.94411 11.5805 9.66612 12.0574C9.56793 12.2219 9.48223 12.3705 9.39604 12.535C9.32918 12.6656 9.24168 12.8306 9.19567 12.9984C9.18529 13.036 9.18092 13.0841 9.1848 13.0951C9.19001 13.0944 9.15225 13.0857 9.19626 13.0855C9.26413 13.0737 9.35569 13.0246 9.4338 12.9777C9.7537 12.7789 10.0163 12.5477 10.1141 12.465C10.1457 12.4375 10.1776 12.4222 10.183 12.4337C10.1929 12.4412 10.1742 12.4712 10.1423 12.4989C10.0441 12.5819 9.78304 12.8121 9.45906 13.0139C9.30417 13.1051 9.06855 13.231 9.15187 12.992C9.19911 12.8163 9.28681 12.6523 9.35404 12.5201C9.44186 12.3521 9.52864 12.2016 9.62828 12.0347C9.90334 11.5639 10.163 11.0389 10.0941 10.4684C9.94612 9.49977 8.81924 9.0896 8.85118 8.10974C8.75823 6.70705 9.30571 5.15177 8.49817 3.89266C8.35303 3.74907 8.1562 3.66831 7.95906 3.63383C7.35929 3.56192 7.11101 3.64719 6.80726 3.72287C6.73568 3.74427 6.66153 3.76821 6.57861 3.79714C5.86558 4.04727 5.25724 4.44474 4.89527 4.72241C4.76934 4.82022 4.67169 4.90365 4.60585 4.96135C4.56974 4.99301 4.54272 5.01731 4.52624 5.03204ZM3.20987 6.38854C3.0111 6.66564 2.76943 7.04462 2.54753 7.42912C2.47083 7.55908 2.39607 7.6886 2.32615 7.81462C2.19117 8.05734 2.07538 8.28747 1.99283 8.47609C1.86556 8.7682 1.79562 8.95576 1.73953 9.14671C1.73895 9.14874 1.73837 9.15078 1.73779 9.15282C1.68797 9.34314 1.63138 9.54458 1.68187 9.86662C1.69242 9.92513 1.7083 9.98723 1.73127 10.0503C1.82285 10.3438 2.09444 10.6139 2.37896 10.8562C2.37922 10.8564 2.37948 10.8567 2.37974 10.8569C2.72637 11.1519 3.09131 11.4475 3.32129 11.6938C3.65261 12.0436 3.90284 12.3606 4.10256 12.6331C4.39653 13.0096 4.49948 13.4409 4.29166 13.5807C3.73896 13.8975 2.95671 13.7351 2.34456 13.5743C2.28267 13.5478 2.39885 13.5416 2.52933 13.5763C2.53363 13.5774 2.53798 13.5785 2.5424 13.5797C2.58571 13.5905 2.62364 13.5995 2.67935 13.6108C2.75731 13.6255 2.81698 13.6347 2.87156 13.6425C2.99813 13.6652 4.05286 13.8108 4.27903 13.5312C4.43499 13.4097 4.33765 13.0407 4.04082 12.6807C3.83528 12.4182 3.58028 12.1089 3.24852 11.7588C3.02535 11.5201 2.70745 11.1938 2.35745 10.8961C2.35651 10.8953 2.35558 10.8945 2.35464 10.8937C2.07198 10.6527 1.78628 10.3742 1.68957 10.0647C1.66599 10 1.64953 9.9357 1.63856 9.87511C1.58458 9.52962 1.64835 9.31606 1.70073 9.12058C1.70129 9.11868 1.70185 9.11678 1.70242 9.11488C1.76025 8.92326 1.82888 8.74232 1.95223 8.45896C2.03722 8.26471 2.15521 8.03077 2.29169 7.78573C2.36071 7.66153 2.43416 7.53438 2.50911 7.40739C2.73064 7.02364 2.97152 6.64568 3.17031 6.36806C3.19419 6.33444 3.22249 6.31229 3.23338 6.31803C3.2442 6.32387 3.23362 6.35516 3.20987 6.38854ZM3.42722 6.55677C3.20986 6.88465 3.01075 7.22842 2.81425 7.58107C2.40025 8.32719 1.93106 9.12899 1.99222 9.7995C2.0001 9.84621 2.01182 9.89458 2.02884 9.94309C2.09257 10.1616 2.29921 10.3885 2.57962 10.6385C2.58335 10.6419 2.58709 10.6453 2.59086 10.6488C2.92937 10.9502 3.27908 11.2785 3.50839 11.5244C3.84475 11.8798 4.1023 12.1999 4.30894 12.474C4.4683 12.6885 4.59222 12.8875 4.65331 13.1272C4.72716 13.3586 4.62653 13.6784 4.47272 13.7875C4.24589 13.9629 4.11145 13.9575 4.01355 13.9833C3.91427 14.0008 3.84907 14.0077 3.77156 14.0143C3.76734 14.0146 3.76312 14.0149 3.7589 14.0152C3.75862 14.0153 3.75834 14.0153 3.75807 14.0154C3.7528 14.0163 3.74835 14.017 3.74606 14.0173C3.74139 14.0179 3.73757 14.0183 3.73614 14.0184C3.73283 14.0187 3.73005 14.0189 3.72906 14.019C3.72502 14.0192 3.72039 14.0195 3.71741 14.0197C3.68916 14.0213 3.6045 14.0234 3.53785 14.0213C3.46989 14.0193 3.4216 14.0153 3.37145 14.0105C3.36636 14.01 3.36128 14.0095 3.3562 14.009C3.311 14.0044 3.2618 13.9989 3.19217 13.9904C3.14926 13.9851 3.12029 13.971 3.12664 13.9596C3.13295 13.9481 3.17235 13.9434 3.21455 13.9484C3.28736 13.9571 3.33933 13.9626 3.38435 13.9669C3.38935 13.9674 3.39436 13.9678 3.39936 13.9683C3.44681 13.9726 3.48951 13.9757 3.54885 13.9773C3.6359 13.9784 3.70055 13.9753 3.76122 13.9708C3.83953 13.9644 3.90945 13.9573 4.01282 13.9385C4.11425 13.9104 4.25989 13.9161 4.47667 13.7223C4.60713 13.6084 4.67385 13.3329 4.60612 13.1206C4.54818 12.905 4.42954 12.7092 4.27402 12.5009C4.07026 12.2307 3.8144 11.912 3.47686 11.5552C3.24794 11.3097 2.89999 10.9831 2.56125 10.6814C2.55736 10.6779 2.55349 10.6744 2.54963 10.6709C2.26932 10.4209 2.05452 10.187 1.9888 9.96208C1.96943 9.90694 1.95712 9.8562 1.94887 9.80745C1.85531 9.09553 2.31553 8.27485 2.73569 7.53858C2.93675 7.18936 3.14798 6.85188 3.3877 6.53624C3.52106 6.34788 3.65129 6.18301 3.77766 6.03577C4.15115 5.60303 4.48288 5.31742 4.80397 5.04556C4.84033 5.01503 4.90948 4.96089 5.00937 4.88941C5.10043 4.82517 5.22022 4.74501 5.36451 4.65678C5.45221 4.60315 5.54988 4.54603 5.65667 4.48723C5.91877 4.34335 6.23819 4.18588 6.61071 4.05097C6.68837 4.02297 6.759 3.99933 6.8261 3.97837C7.10916 3.90171 7.35883 3.79711 7.88669 3.84855C8.04602 3.87213 8.21892 3.93134 8.34081 4.05368C8.71868 4.44631 8.68185 5.35276 8.67559 5.81866C8.66537 6.14561 8.65127 6.33294 8.64248 6.46488C8.6399 6.50162 8.63751 6.53403 8.63534 6.56381C8.62965 6.64136 8.62515 6.70192 8.62028 6.78119C8.5919 7.25692 8.57414 7.61802 8.58842 8.11466C8.59226 8.22928 8.60581 8.34636 8.63507 8.47105C8.64601 8.51784 8.6481 8.55968 8.63735 8.56648C8.62668 8.57322 8.6066 8.54151 8.59497 8.49364C8.56284 8.3609 8.54823 8.23692 8.5442 8.11591C8.52994 7.61963 8.54782 7.25429 8.57644 6.7754C8.58153 6.6926 8.58636 6.62789 8.59213 6.54896C8.59427 6.51964 8.59655 6.48838 8.59898 6.45358C8.6076 6.32395 8.62152 6.13878 8.63158 5.81456C8.64018 5.35218 8.6653 4.44652 8.30998 4.08523C8.19786 3.97231 8.0353 3.9153 7.88174 3.89242C7.37488 3.84208 7.12949 3.94188 6.85078 4.01702C6.78393 4.0377 6.71362 4.06109 6.63601 4.08888C6.2659 4.22204 5.94716 4.37864 5.68636 4.52139C5.58018 4.57968 5.48342 4.63613 5.39638 4.68918C5.2439 4.78215 5.1226 4.86372 5.03258 4.92722C4.94447 4.99042 4.88502 5.03675 4.85498 5.06172C4.52352 5.33955 4.18004 5.63571 3.80634 6.07016C3.68236 6.21493 3.5557 6.3756 3.42722 6.55677ZM9.79706 10.4731C9.79155 10.4408 9.7946 10.4112 9.80592 10.406C9.81722 10.401 9.83322 10.4241 9.83926 10.4577C9.87027 10.6376 9.85468 10.7745 9.83824 10.8839C9.8028 11.0854 9.76919 11.1778 9.71192 11.3237C9.62883 11.5266 9.52617 11.7187 9.4137 11.9059C9.31654 12.0676 9.23304 12.2127 9.15305 12.3633C9.083 12.4957 9.01139 12.6406 8.95952 12.7789C8.93324 12.8514 8.90947 12.9185 8.89664 13.0139C8.89271 13.056 8.88474 13.1124 8.9121 13.1943C8.92995 13.277 9.05983 13.3748 9.13759 13.3734C9.40114 13.3691 9.45258 13.2849 9.5536 13.2383C9.64222 13.1851 9.7104 13.1375 9.76734 13.0972C9.8024 13.0723 9.83614 13.0596 9.8431 13.0696C9.85003 13.0796 9.82732 13.1087 9.79188 13.1339C9.73469 13.1743 9.66632 13.2221 9.57651 13.276C9.47224 13.3233 9.42753 13.4088 9.13953 13.418C9.05403 13.4219 8.89787 13.3149 8.87399 13.2182C8.83876 13.1206 8.84888 13.0586 8.85228 13.0139C8.86548 12.9102 8.89011 12.842 8.91639 12.7685C8.96886 12.6273 9.04147 12.4803 9.11094 12.3486C9.19255 12.1946 9.2771 12.0477 9.37589 11.8833C9.48711 11.6981 9.58846 11.5084 9.67033 11.3088C9.72524 11.1693 9.7568 11.0832 9.79227 10.891C9.80905 10.7853 9.82623 10.6506 9.79706 10.4731Z" fill="var(--stroke-0, black)"/>
</g>
</svg>
