<svg preserveAspectRatio="none" width="100%" height="100%" overflow="visible" style="display: block;" viewBox="0 0 0.698453 0.554848" fill="none" xmlns="http://www.w3.org/2000/svg">
<g id="dollar-person-eyes-r">
<mask id="path-1-inside-1_70_833" fill="white">
<path d="M0.698453 0C0.698453 0.0851068 0.678875 0.169073 0.641233 0.245403C0.603591 0.321733 0.548895 0.388381 0.481375 0.44019C0.413855 0.492 0.335322 0.527583 0.251851 0.544187C0.168379 0.56079 0.0822069 0.557969 -1.10225e-08 0.535942L0.143605 0L0.698453 0Z"/>
</mask>
<path d="M0.698453 0C0.698453 0.0851068 0.678875 0.169073 0.641233 0.245403C0.603591 0.321733 0.548895 0.388381 0.481375 0.44019C0.413855 0.492 0.335322 0.527583 0.251851 0.544187C0.168379 0.56079 0.0822069 0.557969 -1.10225e-08 0.535942L0.143605 0L0.698453 0Z" fill="var(--fill-0, #0F0000)" stroke="var(--stroke-0, #3E6E59)" stroke-width="0.424471" mask="url(#path-1-inside-1_70_833)"/>
</g>
</svg>
