<svg preserveAspectRatio="none" width="100%" height="100%" overflow="visible" style="display: block;" viewBox="0 0 171 210.853" fill="none" xmlns="http://www.w3.org/2000/svg">
<g id="peach-fight">
<g id="peach-fight-body">
<path d="M35.5957 150.599C28.574 143.528 20.1046 137.983 13.4268 132.914C8.4969 137.718 7.17832 141.37 7.29622 149.504C7.12708 160.24 7.68183 165.973 9.89161 175.646C19.3971 185.106 25.7555 188.69 39.1182 191.73C39.1669 196.526 39.9265 198.906 42.8379 202.507C49.9008 210.089 54.0034 210.745 61.6607 205.179C71.2883 197.223 72.0151 192.552 65.7205 183.895C64.6416 183.771 63.5777 183.389 62.5175 182.789C61.2896 181.676 60.2227 180.782 59.1838 180.23C56.9284 179.031 54.8052 179.441 51.454 182.706C45.9643 172.635 44.481 170.319 34.5107 166.217C38.761 162.9 40.4773 161.039 41.8545 157.721C39.8984 155.268 37.8222 152.857 35.5957 150.599Z" fill="var(--fill-0, #EC6B6B)"/>
<path d="M135.11 122.806C133.524 114.412 109.369 107.697 93.7934 92.9611C92.7072 91.9339 91.6642 90.8676 90.6606 89.7721C77.3576 75.2521 70.9615 55.5977 62.5494 53.6031C53.596 51.3647 42.4041 69.5515 29.1604 84.1942C15.9167 98.8368 0.527894 110.029 2.11341 119.635C2.86417 124.184 7.42084 128.356 13.4268 132.914C20.1046 137.983 28.574 143.528 35.5957 150.599C37.8222 152.857 39.8984 155.268 41.8545 157.721C48.6624 166.259 54.0154 175.313 59.1838 180.23C60.2227 180.782 61.2896 181.676 62.5175 182.789C63.5777 183.389 64.6416 183.771 65.7205 183.895C74.674 184.828 84.5601 167.853 100.042 154.423C115.524 140.993 136.696 131.107 135.11 122.806Z" fill="var(--fill-0, #EC6B6B)"/>
<path d="M93.7934 92.9611C109.369 107.697 133.524 114.412 135.11 122.806C151.276 117.805 158.133 111.948 168.817 99.3575C164.411 81.1881 160.457 73.1395 151.577 61.4147C137.751 47.4962 130.167 39.5833 118.391 24.3344C119.713 12.1054 116.92 7.71093 107.217 3.1525C101.726 1.25273 98.8249 1.8183 93.7756 3.99482C87.0072 9.20191 84.8177 11.9508 87.5167 16.1486C114.463 12.3279 112.502 30.8577 112.78 41.0064C113.058 51.155 132.428 75.2996 129.525 78.3419L127.4 80.0706C114.524 74.7938 109.703 76.3016 103.028 89.8036C95.0518 86.2005 94.5046 86.5773 90.6606 89.7721C91.6642 90.8676 92.7072 91.9339 93.7934 92.9611Z" fill="var(--fill-0, #EC6B6B)"/>
<path d="M93.7934 92.9611L95.1679 91.5083L95.1677 91.5081L93.7934 92.9611ZM135.11 122.806L133.145 123.177L133.146 123.181L135.11 122.806ZM35.5957 150.599L37.0198 149.195L37.0149 149.19L35.5957 150.599ZM2.11341 119.635L0.140105 119.961L2.11341 119.635ZM62.5494 53.6031L62.0644 55.5434L62.0762 55.5463L62.088 55.5491L62.5494 53.6031ZM13.4268 132.914L14.6359 131.321V131.321L13.4268 132.914ZM7.29622 149.504L9.29597 149.536L9.29645 149.506L9.29601 149.475L7.29622 149.504ZM9.89161 175.646L7.94185 176.091L8.0707 176.655L8.48078 177.063L9.89161 175.646ZM39.1182 191.73L41.1181 191.71L41.1021 190.131L39.562 189.78L39.1182 191.73ZM42.8379 202.507L41.2827 203.764L41.3267 203.818L41.3744 203.87L42.8379 202.507ZM61.6607 205.179L62.8365 206.797L62.8868 206.761L62.9348 206.721L61.6607 205.179ZM34.5107 166.217L33.2803 164.64C32.7186 165.078 32.4325 165.782 32.5292 166.488C32.6259 167.194 33.0908 167.795 33.7496 168.066L34.5107 166.217ZM41.8545 157.721L43.4182 156.474V156.474L41.8545 157.721ZM103.028 89.8036L102.204 91.6262L103.964 92.4214L104.82 90.69L103.028 89.8036ZM127.4 80.0706L126.641 81.9212L127.74 82.3716L128.662 81.6222L127.4 80.0706ZM129.525 78.3419L130.787 79.8934L130.885 79.8139L130.972 79.7226L129.525 78.3419ZM87.5167 16.1486L85.8344 17.2302L86.5279 18.3088L87.7975 18.1287L87.5167 16.1486ZM93.7756 3.99482L92.9839 2.15818L92.7543 2.25717L92.5561 2.40965L93.7756 3.99482ZM107.217 3.1525L108.067 1.34231L107.971 1.29716L107.871 1.26244L107.217 3.1525ZM118.391 24.3344L116.403 24.1194L116.316 24.9197L116.808 25.5568L118.391 24.3344ZM151.577 61.4147L153.172 60.2072L153.091 60.1003L152.996 60.0051L151.577 61.4147ZM168.817 99.3575L170.342 100.651L171 99.8753L170.76 98.8861L168.817 99.3575ZM62.5175 182.789L61.1741 184.271L61.3387 184.42L61.5321 184.529L62.5175 182.789ZM51.454 182.706L49.6979 183.663L50.9604 185.98L52.8497 184.139L51.454 182.706ZM59.1838 180.23L58.2451 181.996H58.2451L59.1838 180.23ZM93.7934 92.9611L92.4189 94.4139C100.425 101.989 110.603 107.474 118.723 112.008C122.838 114.306 126.373 116.329 128.979 118.276C131.669 120.286 132.9 121.883 133.145 123.177L135.11 122.806L137.075 122.435C136.527 119.532 134.144 117.142 131.373 115.072C128.517 112.938 124.742 110.788 120.673 108.516C112.425 103.91 102.737 98.6697 95.1679 91.5083L93.7934 92.9611ZM135.11 122.806L133.146 123.181C133.363 124.32 132.863 125.867 130.968 128.047C129.118 130.174 126.29 132.498 122.789 135.082C115.925 140.147 106.545 146.135 98.7316 152.912L100.042 154.423L101.353 155.934C109.022 149.281 117.968 143.611 125.164 138.3C128.693 135.696 131.828 133.153 133.986 130.672C136.098 128.244 137.65 125.443 137.074 122.431L135.11 122.806ZM100.042 154.423L98.7316 152.912C90.8957 159.71 84.3906 167.486 78.9844 173.166C76.2357 176.054 73.796 178.379 71.5499 179.924C69.2946 181.476 67.4822 182.068 65.9277 181.906L65.7205 183.895L65.5133 185.884C68.4355 186.189 71.2164 185.009 73.8168 183.22C76.4263 181.425 79.1046 178.842 81.8818 175.924C87.5276 169.992 93.7065 162.567 101.353 155.934L100.042 154.423ZM2.11341 119.635L4.08671 119.309C3.78941 117.508 4.25714 115.47 5.56605 113.058C6.8775 110.641 8.93855 108.025 11.5552 105.149C14.1654 102.281 17.2384 99.2505 20.5336 95.9772C23.8131 92.7196 27.2928 89.2406 30.6437 85.5357L29.1604 84.1942L27.6771 82.8526C24.4061 86.4691 20.9958 89.8801 17.7147 93.1394C14.4492 96.3831 11.291 99.4965 8.59674 102.457C5.90887 105.411 3.59228 108.309 2.05038 111.15C0.505955 113.996 -0.355354 116.959 0.140105 119.961L2.11341 119.635ZM29.1604 84.1942L30.6437 85.5357C33.993 81.8327 37.206 77.9128 40.2534 74.1887C43.3152 70.4469 46.1983 66.9174 48.94 63.9175C51.6941 60.9041 54.2066 58.5374 56.5001 57.0612C58.802 55.5795 60.5953 55.1761 62.0644 55.5434L62.5494 53.6031L63.0345 51.6628C60.0268 50.9109 57.0636 51.9414 54.335 53.6978C51.5979 55.4596 48.806 58.1351 45.9875 61.2189C43.1566 64.3163 40.1989 67.939 37.1577 71.6556C34.102 75.3898 30.9497 79.2343 27.6771 82.8526L29.1604 84.1942ZM35.5957 150.599L37.0149 149.19C29.8617 141.987 21.163 136.275 14.6359 131.321L13.4268 132.914L12.2176 134.508C19.0461 139.69 27.2863 145.07 34.1766 152.008L35.5957 150.599ZM13.4268 132.914L14.6359 131.321C11.6532 129.058 9.13397 126.965 7.27908 124.926C5.41705 122.878 4.3727 121.042 4.08671 119.309L2.11341 119.635L0.140105 119.961C0.604882 122.777 2.21425 125.301 4.31972 127.617C6.43233 129.94 9.19436 132.213 12.2176 134.508L13.4268 132.914ZM13.4268 132.914L12.031 131.482C9.44484 134.002 7.66268 136.359 6.59164 139.27C5.53406 142.143 5.23624 145.381 5.29643 149.533L7.29622 149.504L9.29601 149.475C9.2383 145.494 9.54082 142.838 10.3455 140.651C11.1368 138.501 12.4788 136.63 14.8225 134.347L13.4268 132.914ZM7.29622 149.504L5.29647 149.473C5.12506 160.353 5.69288 166.247 7.94185 176.091L9.89161 175.646L11.8414 175.2C9.67078 165.699 9.1291 160.128 9.29597 149.536L7.29622 149.504ZM9.89161 175.646L8.48078 177.063C13.2996 181.859 17.4155 185.262 22.091 187.846C26.7667 190.43 31.8972 192.138 38.6745 193.681L39.1182 191.73L39.562 189.78C32.9765 188.282 28.2465 186.678 24.0259 184.345C19.8051 182.012 15.9891 178.893 11.3024 174.228L9.89161 175.646ZM39.1182 191.73L37.1183 191.751C37.1436 194.238 37.3522 196.275 38.0113 198.211C38.6747 200.159 39.745 201.862 41.2827 203.764L42.8379 202.507L44.3931 201.249C43.0193 199.55 42.2543 198.262 41.7978 196.922C41.3371 195.569 41.1416 194.018 41.1181 191.71L39.1182 191.73ZM42.8379 202.507L41.3744 203.87C44.9337 207.691 48.1361 210.23 51.739 210.753C55.4195 211.287 58.9179 209.645 62.8365 206.797L61.6607 205.179L60.4849 203.562C56.7462 206.279 54.3647 207.092 52.3137 206.794C50.1853 206.485 47.8049 204.905 44.3014 201.143L42.8379 202.507ZM41.8545 157.721L43.4182 156.474C41.4313 153.982 39.3083 151.516 37.0198 149.195L35.5957 150.599L34.1717 152.003C36.3361 154.198 38.3654 156.553 40.2907 158.968L41.8545 157.721ZM62.5494 53.6031L62.088 55.5491C63.5548 55.8969 65.1836 57.0915 67.0938 59.3467C68.9759 61.5688 70.9094 64.5474 73.0697 68.0422C77.335 74.9423 82.375 83.6891 89.1859 91.1231L90.6606 89.7721L92.1352 88.421C85.6433 81.3351 80.8337 72.9948 76.4722 65.939C74.3191 62.4559 72.2449 59.2393 70.1461 56.7615C68.0754 54.3167 65.7501 52.3065 63.0109 51.657L62.5494 53.6031ZM90.6606 89.7721L89.1859 91.1231C90.2191 92.2508 91.2954 93.3514 92.4191 94.4142L93.7934 92.9611L95.1677 91.5081C94.119 90.5163 93.1094 89.4844 92.1352 88.421L90.6606 89.7721ZM90.6606 89.7721L91.9389 91.3102C94.0015 89.596 94.554 89.2591 95.3481 89.2379C95.809 89.2256 96.4839 89.3321 97.6241 89.7218C98.7589 90.1097 100.213 90.7266 102.204 91.6262L103.028 89.8036L103.851 87.9809C101.854 87.079 100.249 86.3918 98.9179 85.9368C97.5922 85.4837 96.3946 85.2085 95.2412 85.2393C92.8068 85.3045 91.1637 86.7534 89.3822 88.2339L90.6606 89.7721ZM127.4 80.0706L128.662 81.6222L130.787 79.8934L129.525 78.3419L128.263 76.7903L126.138 78.519L127.4 80.0706ZM129.525 78.3419L130.972 79.7226C131.596 79.0688 131.784 78.2682 131.816 77.6338C131.848 77.0041 131.739 76.3637 131.586 75.7774C131.281 74.6017 130.686 73.2207 129.965 71.7639C128.512 68.8329 126.306 65.1323 124.07 61.326C121.809 57.4767 119.492 53.4778 117.722 49.8222C115.914 46.0884 114.836 43.0194 114.779 40.9517L112.78 41.0064L110.781 41.0611C110.863 44.0676 112.31 47.8224 114.122 51.5651C115.971 55.3859 118.368 59.5162 120.621 63.352C122.899 67.2306 125.009 70.771 126.38 73.5398C127.071 74.933 127.516 76.0167 127.715 76.7834C127.815 77.1683 127.824 77.3685 127.821 77.4316C127.818 77.49 127.817 77.2346 128.078 76.9611L129.525 78.3419ZM112.78 41.0064L114.779 40.9517C114.714 38.5537 114.78 35.3082 114.497 32.1263C114.21 28.9034 113.552 25.4472 111.911 22.3927C110.24 19.2811 107.587 16.6609 103.497 15.1217C99.4658 13.6045 94.1684 13.1854 87.2359 14.1684L87.5167 16.1486L87.7975 18.1287C94.3382 17.2013 98.9005 17.6657 102.089 18.8654C105.218 20.0432 107.145 21.9734 108.387 24.2853C109.659 26.6542 110.247 29.4945 110.513 32.4809C110.782 35.5082 110.707 38.3847 110.781 41.0611L112.78 41.0064ZM87.5167 16.1486L89.199 15.0669C88.639 14.1959 88.4352 13.5574 88.3988 13.0638C88.3645 12.5986 88.4654 12.0898 88.8358 11.4365C89.6611 9.98072 91.5626 8.22074 94.9951 5.57999L93.7756 3.99482L92.5561 2.40965C89.2202 4.97599 86.6428 7.194 85.356 9.46385C84.6703 10.6734 84.3069 11.9643 84.4096 13.3579C84.5103 14.7231 85.045 16.0023 85.8344 17.2302L87.5167 16.1486ZM93.7756 3.99482L94.5673 5.83146C97.0471 4.76253 98.7921 4.18502 100.502 4.03767C102.178 3.89335 103.984 4.15013 106.563 5.04255L107.217 3.1525L107.871 1.26244C104.96 0.255101 102.57 -0.155223 100.159 0.0524327C97.7838 0.257064 95.5534 1.05059 92.9839 2.15818L93.7756 3.99482ZM107.217 3.1525L106.366 4.96268C111.112 7.19229 113.751 9.2024 115.183 11.8256C116.627 14.4702 117.052 18.1139 116.403 24.1194L118.391 24.3344L120.38 24.5494C121.052 18.3259 120.741 13.6579 118.694 9.90836C116.634 6.13746 113.024 3.67113 108.067 1.34231L107.217 3.1525ZM118.391 24.3344L116.808 25.5568C128.658 40.9015 136.308 48.8819 150.159 62.8242L151.577 61.4147L152.996 60.0051C139.193 46.1105 131.676 38.2651 119.974 23.1119L118.391 24.3344ZM151.577 61.4147L149.983 62.6222C158.679 74.1044 162.524 81.8956 166.873 99.8288L168.817 99.3575L170.76 98.8861C166.297 80.4806 162.235 72.1746 153.172 60.2072L151.577 61.4147ZM168.817 99.3575L167.292 98.0635C161.976 104.328 157.717 108.789 152.848 112.307C148.002 115.808 142.459 118.439 134.519 120.895L135.11 122.806L135.701 124.717C143.927 122.172 149.896 119.374 155.191 115.549C160.463 111.74 164.974 106.977 170.342 100.651L168.817 99.3575ZM119.801 107.945L119.741 109.944C125.095 110.104 129.218 109.617 132.527 107.662C135.875 105.683 138.052 102.406 140.012 97.8245L138.173 97.038L136.334 96.2514C134.495 100.55 132.749 102.885 130.492 104.218C128.196 105.575 125.032 106.101 119.861 105.946L119.801 107.945ZM103.028 89.8036L104.82 90.69C108.159 83.937 110.746 80.8631 113.607 79.7615C116.452 78.6663 120.195 79.2793 126.641 81.9212L127.4 80.0706L128.158 78.22C121.729 75.5851 116.624 74.3136 112.17 76.0287C107.733 77.7372 104.572 82.1683 101.235 88.9171L103.028 89.8036ZM41.8545 157.721L40.0073 156.954C38.8249 159.803 37.4253 161.405 33.2803 164.64L34.5107 166.217L35.7412 167.793C40.0968 164.394 42.1297 162.275 43.7017 158.488L41.8545 157.721ZM61.6607 205.179L62.9348 206.721C67.7689 202.726 70.8891 199.171 71.6283 195.163C72.3858 191.055 70.5414 187.125 67.3381 182.719L65.7205 183.895L64.1029 185.071C67.1942 189.323 68.1337 192.056 67.6946 194.437C67.2371 196.918 65.1801 199.676 60.3866 203.638L61.6607 205.179ZM65.7205 183.895L65.9482 181.908C65.1897 181.821 64.3818 181.546 63.5029 181.048L62.5175 182.789L61.5321 184.529C62.7735 185.232 64.0936 185.722 65.4928 185.882L65.7205 183.895ZM51.454 182.706L53.2101 181.749C50.5017 176.78 48.6275 173.412 46.0911 170.823C43.4954 168.174 40.3221 166.445 35.2718 164.367L34.5107 166.217L33.7496 168.066C38.6696 170.091 41.2231 171.571 43.2341 173.623C45.3043 175.736 46.9167 178.561 49.6979 183.663L51.454 182.706ZM59.1838 180.23L60.1226 178.464C58.6306 177.671 56.9966 177.339 55.1675 177.875C53.4685 178.372 51.8167 179.56 50.0583 181.274L51.454 182.706L52.8497 184.139C54.4425 182.587 55.5278 181.937 56.2921 181.713C56.9263 181.527 57.4816 181.59 58.2451 181.996L59.1838 180.23ZM62.5175 182.789L63.8608 181.307C62.6376 180.198 61.4062 179.146 60.1226 178.464L59.1838 180.23L58.2451 181.996C59.0392 182.418 59.9416 183.153 61.1741 184.271L62.5175 182.789ZM59.1838 180.23L60.5624 178.781C58.1334 176.47 55.604 173.126 52.7581 169.166C49.9507 165.26 46.8633 160.795 43.4182 156.474L41.8545 157.721L40.2907 158.968C43.6536 163.185 46.6467 167.516 49.5099 171.5C52.3346 175.431 55.0659 179.073 57.8053 181.679L59.1838 180.23Z" fill="var(--stroke-0, black)"/>
</g>
<circle id="peach-eyes-l" cx="50.8898" cy="116.556" r="6.49364" transform="rotate(-45 50.8898 116.556)" fill="var(--fill-0, #0F0000)"/>
<circle id="peach-eyes-r" cx="65.5832" cy="101.863" r="6.49364" transform="rotate(-45 65.5832 101.863)" fill="var(--fill-0, #0F0000)"/>
<line id="peach-fight-brow-left" x1="34.3154" y1="110.114" x2="53.2865" y2="110.114" stroke="var(--stroke-0, black)" stroke-width="5" stroke-linecap="round"/>
<line id="peach-fight-brow-r" x1="2.5" y1="-2.5" x2="21.4711" y2="-2.5" transform="matrix(-0.258819 0.965926 0.965926 0.258819 68.6132 81.524)" stroke="var(--stroke-0, black)" stroke-width="5" stroke-linecap="round"/>
</g>
</svg>
