<svg preserveAspectRatio="none" width="100%" height="100%" overflow="visible" style="display: block;" viewBox="0 0 46.6507 45.7131" fill="none" xmlns="http://www.w3.org/2000/svg">
<path id="peach-blob-body" d="M19.0703 1.25C19.8799 0.728851 20.5178 0.58218 21.0449 0.713867L21.0527 0.71582C21.6194 0.850187 22.2423 1.33462 22.9727 2.23633C23.6909 3.12312 24.4292 4.30307 25.2646 5.66602C26.8121 8.19064 28.6563 11.2848 31.1777 13.834L31.6914 14.3359C34.4918 16.9854 38.0524 18.9045 40.8975 20.4932C42.3382 21.2977 43.5784 22.008 44.4932 22.6914C45.436 23.3958 45.8766 23.9613 45.9648 24.4277L45.9658 24.4297C46.0447 24.8437 45.8607 25.396 45.1953 26.1611C44.545 26.9089 43.5516 27.7248 42.3252 28.6299C39.9185 30.406 36.6366 32.5004 33.9014 34.873C31.1585 37.2524 28.8827 39.9734 26.9873 41.9648C26.0243 42.9766 25.1676 43.7937 24.3779 44.3369C23.5857 44.8818 22.9431 45.0938 22.3877 45.0361C21.8214 44.9692 21.1934 44.6093 20.4609 43.9063C19.7329 43.2075 18.9766 42.2432 18.1455 41.1045C16.5067 38.8591 14.6072 35.9676 12.2422 33.5693L12.2402 33.5684L11.7891 33.124C9.50466 30.9314 6.86043 29.1489 4.75977 27.5791C3.62415 26.7304 2.65352 25.9493 1.93555 25.1875C1.2141 24.422 0.805777 23.736 0.698242 23.085C0.592495 22.4443 0.759391 21.7223 1.21973 20.874C1.68094 20.0241 2.40522 19.1054 3.32227 18.0977C4.23717 17.0923 5.31392 16.03 6.46777 14.8838C7.61635 13.7429 8.8349 12.5253 10.0078 11.2285C11.1803 9.93223 12.3056 8.55932 13.373 7.25488C14.4451 5.94471 15.4551 4.70763 16.416 3.65625C17.381 2.60044 18.2635 1.7694 19.0703 1.25Z" fill="var(--fill-0, #EC6B6B)" stroke="var(--stroke-0, black)" stroke-width="1.33544"/>
</svg>
