<svg preserveAspectRatio="none" width="100%" height="100%" overflow="visible" style="display: block;" viewBox="0 0 190.499 194.16" fill="none" xmlns="http://www.w3.org/2000/svg">
<g id="phone-trenchcoat" filter="url(#filter0_d_70_843)">
<path d="M97.7542 0.98401H42.6816C36.2478 5.39304 34.1315 7.86191 33.5751 12.2587V52.891L42.6816 56.9239C62.8174 90.6151 68.1467 113.232 67.3992 160.564L99.9224 157.095C108.31 154.124 110.794 150.924 111.197 142.351V54.7557V30.038V12.2587C109.396 5.52891 106.519 3.0121 97.7542 0.98401Z" fill="#8F9EFF"/>
<path d="M33.5751 12.2587C34.1315 7.86191 36.2478 5.39304 42.6816 0.98401C32.3271 0.275919 28.4589 2.64457 25.3359 12.2587L25.8291 33.5072L26.2032 49.6263L33.5751 52.891V12.2587Z" fill="#485291"/>
<path fill-rule="evenodd" clip-rule="evenodd" d="M4.52109 177.043C28.7944 186.159 42.6269 186.858 67.3992 186.149V173.357V160.564C68.1467 113.232 62.8174 90.6151 42.6816 56.9239L33.5751 52.891L26.2032 49.6263L12.3267 43.481C22.69 94.0955 19.6931 123.488 4.52109 177.043ZM44.8498 174.007C39.2102 174.326 36.249 174.675 25.3359 170.538C21.602 169.896 23.5323 160.467 26.2032 145.387C36.6179 150.96 42.5239 150.755 53.089 148.856C51.6904 168.734 49.9439 174.566 44.8498 174.007Z" fill="var(--fill-0, #2F4342)"/>
<path d="M111.197 54.7557C133.174 65.5866 146.014 70.8502 171.907 75.5705C154.133 67.0382 135.481 50.8529 132.879 50.8529C130.277 50.8528 125.901 50.4023 119.87 52.891C121.048 43.8523 124.151 39.9584 130.711 33.5072C124.518 29.9052 120.191 29.2254 111.197 30.038V54.7557Z" fill="var(--fill-0, #2F4342)"/>
<path d="M25.3359 170.538C36.249 174.675 39.2102 174.326 44.8498 174.007C49.9439 174.566 51.6904 168.734 53.089 148.856C42.5239 150.755 36.6179 150.96 26.2032 145.387C23.5323 160.467 21.602 169.896 25.3359 170.538Z" fill="var(--fill-0, #2F4342)"/>
<path fill-rule="evenodd" clip-rule="evenodd" d="M99.9224 157.095L67.3992 160.564V173.357C130.7 162.064 155.554 160.527 183.182 165.334C189.032 126.718 186.772 107.299 171.907 75.5705C146.014 70.8502 133.174 65.5866 111.197 54.7557V142.351C110.794 150.924 108.31 154.124 99.9224 157.095ZM175.376 118.067C155.783 123.63 142.601 124.606 117.268 124.572C117.817 154.532 126.397 162.412 164.101 152.325C179.133 149.934 181.129 141.83 175.376 118.067Z" fill="#182625"/>
<path d="M11.0257 39.1445C10.0969 41.4802 10.2966 42.465 12.3267 43.481L26.2032 49.6263L25.8291 33.5072H22.7341C16.5315 33.8293 14.0465 35.154 11.0257 39.1445Z" fill="#182625"/>
<path d="M117.268 124.572C142.601 124.606 155.783 123.63 175.376 118.067C181.129 141.83 179.133 149.934 164.101 152.325C126.397 162.412 117.817 154.532 117.268 124.572Z" fill="var(--fill-0, #2F4342)"/>
<path d="M117.268 124.572C142.601 124.606 155.783 123.63 175.376 118.067C181.129 141.83 179.133 149.934 164.101 152.325C126.397 162.412 117.817 154.532 117.268 124.572Z" fill="var(--fill-0, #2F4342)"/>
<path d="M42.6816 0.98401H97.7542C106.519 3.0121 109.396 5.52891 111.197 12.2587V30.038M42.6816 0.98401C36.2478 5.39304 34.1315 7.86191 33.5751 12.2587V52.891M42.6816 0.98401C32.3271 0.275919 28.4589 2.64457 25.3359 12.2587L25.8291 33.5072M67.3992 160.564L99.9224 157.095C108.31 154.124 110.794 150.924 111.197 142.351V54.7557M67.3992 160.564V173.357M67.3992 160.564C68.1467 113.232 62.8174 90.6151 42.6816 56.9239L33.5751 52.891M12.3267 43.481C10.2966 42.465 10.0969 41.4802 11.0257 39.1445C14.0465 35.154 16.5315 33.8293 22.7341 33.5072H25.8291M12.3267 43.481L26.2032 49.6263M12.3267 43.481C22.69 94.0955 19.6931 123.488 4.52109 177.043C28.7944 186.159 42.6269 186.858 67.3992 186.149V173.357M33.5751 52.891L26.2032 49.6263M26.2032 49.6263L25.8291 33.5072M67.3992 173.357C130.7 162.064 155.554 160.527 183.182 165.334C189.032 126.718 186.772 107.299 171.907 75.5705M171.907 75.5705C146.014 70.8502 133.174 65.5866 111.197 54.7557M171.907 75.5705C154.133 67.0382 135.481 50.8529 132.879 50.8529C130.277 50.8528 125.901 50.4023 119.87 52.891C121.048 43.8523 124.151 39.9584 130.711 33.5072C124.518 29.9052 120.191 29.2254 111.197 30.038M111.197 54.7557V30.038M26.2032 145.387C36.6179 150.96 42.5239 150.755 53.089 148.856C51.6904 168.734 49.9439 174.566 44.8498 174.007C39.2102 174.326 36.249 174.675 25.3359 170.538C21.602 169.896 23.5323 160.467 26.2032 145.387ZM117.268 124.572C142.601 124.606 155.783 123.63 175.376 118.067C181.129 141.83 179.133 149.934 164.101 152.325C126.397 162.412 117.817 154.532 117.268 124.572Z" stroke="var(--stroke-0, black)" stroke-width="1.73457"/>
</g>
<defs>
<filter id="filter0_d_70_843" x="1.19209e-07" y="0" width="190.499" height="194.16" filterUnits="userSpaceOnUse" color-interpolation-filters="sRGB">
<feFlood flood-opacity="0" result="BackgroundImageFix"/>
<feColorMatrix in="SourceAlpha" type="matrix" values="0 0 0 0 0 0 0 0 0 0 0 0 0 0 0 0 0 0 127 0" result="hardAlpha"/>
<feOffset dy="3.46914"/>
<feGaussianBlur stdDeviation="1.73457"/>
<feComposite in2="hardAlpha" operator="out"/>
<feColorMatrix type="matrix" values="0 0 0 0 0 0 0 0 0 0 0 0 0 0 0 0 0 0 1 0"/>
<feBlend mode="normal" in2="BackgroundImageFix" result="effect1_dropShadow_70_843"/>
<feBlend mode="normal" in="SourceGraphic" in2="effect1_dropShadow_70_843" result="shape"/>
</filter>
</defs>
</svg>
