<svg preserveAspectRatio="none" width="100%" height="100%" overflow="visible" style="display: block;" viewBox="0 0 184.627 190.108" fill="none" xmlns="http://www.w3.org/2000/svg">
<g id="phone-fight">
<g id="phone-fight-body">
<path d="M43.6661 106.631C42.5361 133.039 47.6703 144.314 66.905 158.377C87.0217 147.513 95.0005 139.312 103.663 121.138C107.881 136.751 108.825 145.376 108.729 161.56C106.518 162.916 105.116 163.493 100.879 162.578C99.5853 156.081 97.3074 153.738 90.1252 152.186C85.592 152.332 83.4975 153.017 82.1896 157.508C81.1084 156.767 79.8505 156.98 76.2965 158.565C67.537 171.197 71.5659 184.271 85.4939 188.108C99.1686 188.108 99.6741 186.467 103.236 181.807C147.319 179.544 141.015 179.081 153.12 173.407C155.799 174.836 157.498 174.803 160.532 174.729C164.572 171.622 165.238 168.961 165.837 163.874C177.837 150.854 179.889 142.444 179.891 126.573C183.137 114.182 183.438 105.527 180.224 97.6941C177.799 91.7844 173.374 86.3425 166.703 80.1167L150.787 15.5982C146.784 5.85202 143.162 3.81699 134.546 5.53212L87.7311 17.0806C81.0138 20.2085 79.472 23.8198 81.9327 33.0152L91.6707 74.7053C84.3832 78.7638 82.2266 82.5812 82.3114 92.5262C69.5884 95.4131 65.6521 101.565 64.1403 120.35C62.0155 119.67 60.9287 119.774 59.0532 120.248C54.5374 113.687 51.2322 110.789 43.6661 106.631Z" fill="var(--fill-0, #8F9EFF)"/>
<path d="M150.787 15.5982L166.703 80.1167C173.374 86.3425 177.799 91.7844 180.224 97.6941L155.849 6.16384C153.92 1.4551 151.082 0.270874 134.546 5.53212C143.162 3.81699 146.784 5.85202 150.787 15.5982Z" fill="#485291"/>
<path d="M108.729 161.56C108.825 145.376 107.881 136.751 103.663 121.138C95.0005 139.312 87.0217 147.513 66.905 158.377C47.6703 144.314 42.5361 133.039 43.6661 106.631C51.2322 110.789 54.5374 113.687 59.0532 120.248C60.9287 119.774 62.0155 119.67 64.1403 120.35C65.6521 101.565 69.5884 95.4131 82.3114 92.5262C82.2266 82.5812 84.3832 78.7638 91.6707 74.7053L81.9327 33.0152C79.472 23.8198 81.0138 20.2085 87.7311 17.0806L134.546 5.53212M108.729 161.56C106.518 162.916 105.116 163.493 100.879 162.578C99.5853 156.081 97.3074 153.738 90.1252 152.186C85.592 152.332 83.4975 153.017 82.1896 157.508M108.729 161.56C123.555 152.576 131.524 148.383 141.833 150.477C137.4 134.134 139.887 127.61 152.225 120.149C146.909 109.461 147.418 104.099 153.891 95.5199M82.1896 157.508L86.0481 160.325M82.1896 157.508C81.1084 156.767 79.8505 156.98 76.2965 158.565C67.537 171.197 71.5659 184.271 85.4939 188.108C99.1686 188.108 99.6741 186.467 103.236 181.807C147.319 179.544 141.015 179.081 153.12 173.407C155.799 174.836 157.498 174.803 160.532 174.729C164.572 171.622 165.238 168.961 165.837 163.874C177.837 150.854 179.889 142.444 179.891 126.573M161.445 128.946C162.813 137.493 161.536 141.52 155.6 147.228M179.891 126.573L174.327 130.768M179.891 126.573C183.137 114.182 183.438 105.527 180.224 97.6941M134.546 5.53212C143.162 3.81699 146.784 5.85202 150.787 15.5982L166.703 80.1167C173.374 86.3425 177.799 91.7844 180.224 97.6941M134.546 5.53212C151.082 0.270874 153.92 1.4551 155.849 6.16384L180.224 97.6941" stroke="var(--stroke-0, black)" stroke-width="4" stroke-linecap="round"/>
</g>
<g id="phone-fight-hand">
<path d="M18.5553 78.9233C7.40733 79.2874 3.94682 82.2587 3.0459 92.7874C3.67069 104.843 7.16251 110.651 18.2899 119.508L23.4124 106.731C34.4784 98.5744 36.3379 83.5599 18.5553 78.9233Z" fill="var(--fill-0, #8F9EFF)"/>
<path d="M18.5553 78.9233L18.8515 77.7871C18.7424 77.7586 18.6297 77.7461 18.517 77.7497L18.5553 78.9233ZM3.0459 92.7874L1.876 92.6873L1.86913 92.7677L1.8733 92.8482L3.0459 92.7874ZM18.2899 119.508L17.5586 120.427C17.8489 120.658 18.2314 120.739 18.5901 120.644C18.9489 120.549 19.2416 120.29 19.3797 119.945L18.2899 119.508ZM23.4124 106.731L22.7157 105.786L22.4468 105.984L22.3225 106.294L23.4124 106.731ZM18.5553 78.9233L18.517 77.7497C12.9136 77.9327 8.88354 78.7648 6.17857 81.1654C3.45003 83.587 2.33146 87.3646 1.876 92.6873L3.0459 92.7874L4.21581 92.8875C4.66127 87.6816 5.72341 84.7092 7.73735 82.9218C9.77485 81.1136 13.049 80.2779 18.5936 80.0968L18.5553 78.9233ZM3.0459 92.7874L1.8733 92.8482C2.19124 98.9828 3.24525 103.65 5.71194 107.933C8.16505 112.192 11.9581 115.969 17.5586 120.427L18.2899 119.508L19.0211 118.59C13.4942 114.19 9.97774 110.634 7.74689 106.761C5.52965 102.911 4.52535 98.6472 4.21851 92.7266L3.0459 92.7874ZM18.2899 119.508L19.3797 119.945L24.5022 107.168L23.4124 106.731L22.3225 106.294L17.2 119.072L18.2899 119.508ZM23.4124 106.731L24.109 107.677C29.8551 103.441 33.3846 97.2993 32.9734 91.4252C32.5528 85.4163 28.0632 80.1889 18.8515 77.7871L18.5553 78.9233L18.259 80.0595C26.83 82.2942 30.302 86.8925 30.6308 91.5892C30.969 96.4208 28.0357 101.865 22.7157 105.786L23.4124 106.731Z" fill="var(--stroke-0, black)"/>
</g>
<g id="phone-eyes-mad">
<path d="M111.77 51.595L118.195 51.595L118.195 58.0206L111.77 58.0206L111.77 51.595Z" fill="var(--fill-0, black)"/>
<path d="M124.919 51.595L131.345 51.595L131.345 58.0206L124.919 58.0206L124.919 51.595Z" fill="var(--fill-0, black)"/>
<path d="M111.835 72.1655L118.26 72.1656L118.26 78.5912L111.835 78.5912L111.835 72.1655Z" fill="var(--fill-0, black)"/>
<path d="M118.26 72.1656L124.686 72.1656L124.686 78.5912L118.26 78.5912L118.26 72.1656Z" fill="var(--fill-0, black)"/>
<path d="M124.686 72.1656L131.112 72.1656L131.112 78.5912L124.686 78.5912L124.686 72.1656Z" fill="var(--fill-0, black)"/>
<path d="M121.885 50.9402L128.31 50.9402L128.31 46.8942L132.356 46.8942L132.356 43.8598L138.425 43.8598L138.425 37.4341L131.999 37.4341L131.999 40.4686L125.931 40.4686L125.931 44.5145L121.885 44.5145L121.885 50.9402Z" fill="var(--fill-0, black)"/>
<path d="M103.678 37.4341L110.103 37.4341L110.103 41.4801L114.149 41.4801L114.149 44.5145L120.218 44.5145L120.218 50.9402L113.793 50.9402L113.793 47.9057L107.724 47.9057L107.724 43.8598L103.678 43.8598L103.678 37.4341Z" fill="var(--fill-0, black)"/>
<path d="M105.349 84.6942L111.835 84.6942L111.835 78.5912L105.349 78.5912L105.349 84.6942Z" fill="var(--fill-0, black)"/>
<path d="M131.112 84.6942L137.537 84.6942L137.537 78.5912L131.112 78.5912L131.112 84.6942Z" fill="var(--fill-0, black)"/>
<path d="M110.822 83.6823L106.361 83.6818L106.36 79.6022C106.759 79.6022 107.249 79.6029 107.781 79.6029C108.756 79.6029 109.871 79.6029 110.823 79.6029L110.822 83.6823ZM136.525 83.6823L132.123 83.6815L132.123 79.603L132.123 79.6021L136.526 79.6029L136.525 83.6823ZM117.249 77.58L112.846 77.58L112.846 73.1771L117.249 73.177L117.249 77.58ZM123.675 77.5791L119.272 77.5801L119.272 73.1762L123.674 73.1759L123.675 77.5791ZM130.1 77.5789L130.1 77.5799L125.698 77.5792L125.698 73.1763L130.1 73.1769L130.1 77.5789ZM117.183 57.0085L112.78 57.0086L112.781 52.6068L117.184 52.6067L117.183 57.0085ZM130.332 57.0084L125.929 57.0085L125.93 52.6067L130.333 52.6067L130.332 57.0084ZM109.092 41.4801L109.092 42.4921L110.103 42.492L113.138 42.4912L113.138 44.5144L113.138 45.5264L114.149 45.5263L119.206 45.5257L119.206 49.9286L114.804 49.9278L114.804 47.9057L114.804 46.8938L113.793 46.8938L108.735 46.8933L108.735 43.8593L108.735 42.8483L107.724 42.8483L104.688 42.8477L104.689 38.4459L109.092 38.4458L109.092 41.4801ZM137.412 42.8477L132.356 42.8486L131.345 42.8486L131.345 43.8597L131.344 45.8815L128.31 45.8823L127.299 45.8823L127.299 46.8943L127.298 49.9281L122.896 49.9275L122.897 45.5257L125.931 45.5258L126.942 45.5257L126.942 44.5147L126.941 41.4795L132 41.4803L133.011 41.4802L133.011 40.4683L133.011 38.4441L137.412 38.4447L137.412 42.8477Z" stroke="var(--stroke-0, black)" stroke-width="2.02298"/>
</g>
</g>
</svg>
