<svg preserveAspectRatio="none" width="100%" height="100%" overflow="visible" style="display: block;" viewBox="0 0 15.4195 18.1404" fill="none" xmlns="http://www.w3.org/2000/svg">
<g id="phone-table-face">
<path d="M3.77913 8.10042L6.17039 7.45969L6.81112 9.85094L4.41986 10.4917L3.77913 8.10042Z" fill="var(--fill-0, black)"/>
<path d="M8.67256 6.78923L11.0638 6.1485L11.7046 8.53976L9.31329 9.18049L8.67256 6.78923Z" fill="var(--fill-0, black)"/>
<path d="M2.82251 13.9986L5.21376 13.3579L5.85451 15.7491L3.46324 16.3898L2.82251 13.9986Z" fill="var(--fill-0, black)"/>
<path d="M2.82251 13.9986L5.21376 13.3579L5.85451 15.7491L3.46324 16.3898L2.82251 13.9986Z" fill="var(--fill-0, black)"/>
<path d="M5.85451 15.7491L8.24576 15.1084L8.88649 17.4996L6.49524 18.1404L5.85451 15.7491Z" fill="var(--fill-0, black)"/>
<path d="M8.24576 15.1084L10.637 14.4676L11.2778 16.8589L8.88649 17.4996L8.24576 15.1084Z" fill="var(--fill-0, black)"/>
<path d="M10.637 14.4676L13.0283 13.8269L13.669 16.2182L11.2778 16.8589L10.637 14.4676Z" fill="var(--fill-0, black)"/>
<path d="M12.3875 11.4356L14.7788 10.7949L15.4195 13.1862L13.0283 13.8269L12.3875 11.4356Z" fill="var(--fill-0, black)"/>
<path d="M8.12227 6.67552L10.5135 6.03478L10.1101 4.52911L11.6157 4.12567L11.3132 2.99642L13.5717 2.39125L12.9309 0L10.5397 0.640735L10.8423 1.76999L8.58375 2.37515L8.9872 3.88082L7.48153 4.28426L8.12227 6.67552Z" fill="var(--fill-0, black)"/>
<path d="M0 3.46484L2.39125 2.8241L2.7947 4.32977L4.30037 3.92633L4.60293 5.05558L6.86145 4.45041L7.50219 6.84167L5.11093 7.48241L4.80835 6.35316L2.54984 6.95832L2.14641 5.45265L0.640734 5.85609L0 3.46484Z" fill="var(--fill-0, black)"/>
<path d="M7.64648 16.7842L7.20996 16.9014L7.09277 16.4639L7.53027 16.3467L7.64648 16.7842ZM10.0381 16.1436L9.60059 16.2607L9.4834 15.8232L9.9209 15.7061L10.0381 16.1436ZM12.4297 15.502L11.9922 15.6191L11.875 15.1816L12.3125 15.0654L12.4297 15.502ZM4.61523 15.0332L4.17871 15.1504L4.06152 14.7129L4.49805 14.5967L4.61523 15.0332ZM14.1797 12.4707L13.7422 12.5879L13.626 12.1504L14.0635 12.0332L14.1797 12.4707ZM5.57227 9.13574L5.13477 9.25293L5.01758 8.81543L5.45508 8.69824L5.57227 9.13574ZM10.4648 7.82422L10.0273 7.94141L9.91113 7.50391L10.3486 7.38672L10.4648 7.82422ZM6.2627 6.12598L5.8252 6.24316L5.78516 6.0918L5.70801 5.80566L6.14648 5.68848L6.2627 6.12598ZM3.62598 5.31738L3.70215 5.60156L3.26465 5.71875L3.14746 5.28223L3.58496 5.16504L3.62598 5.31738ZM9.27344 5.31934L8.83691 5.43555L8.71973 4.99902L9.15625 4.88184L9.27344 5.31934ZM1.79199 4.5L1.35547 4.61719L1.23828 4.17969L1.6748 4.0625L1.79199 4.5ZM10.3359 3.25781L10.376 3.41016L9.93848 3.52734L9.82227 3.08984L10.2588 2.97266L10.3359 3.25781ZM12.332 1.67578L11.8955 1.79297L11.8193 1.50781L11.7783 1.35547L12.2148 1.23828L12.332 1.67578Z" stroke="var(--stroke-0, black)" stroke-width="2.02298"/>
</g>
</svg>
