<svg preserveAspectRatio="none" width="100%" height="100%" overflow="visible" style="display: block;" viewBox="0 0 124 60" fill="none" xmlns="http://www.w3.org/2000/svg">
<g id="table">
<path d="M62 33.657C96.2417 33.657 124 26.1227 124 16.8285C124 7.53439 96.2417 0 62 0C27.7583 0 0 7.53439 0 16.8285C0 26.1227 27.7583 33.657 62 33.657Z" fill="#3E281B"/>
<path d="M62 60C96.2417 60 124 52.4656 124 43.1715V16.8285C124 26.1227 96.2417 33.657 62 33.657C27.7583 33.657 0 26.1227 0 16.8285V43.1715C0 52.4656 27.7583 60 62 60Z" fill="var(--fill-0, #231F14)"/>
<path d="M123.133 43.1719C123.133 45.034 121.731 47.0212 118.659 48.9922C115.627 50.9377 111.183 52.7227 105.613 54.2344C94.4867 57.2544 79.0667 59.1328 62 59.1328C44.9333 59.1328 29.5133 57.2544 18.3867 54.2344C12.8173 52.7227 8.37259 50.9377 5.34082 48.9922C2.26949 47.0212 0.867385 45.034 0.867188 43.1719V21.1172C1.76267 22.1889 2.9692 23.1875 4.4043 24.1084C7.64726 26.1895 12.2824 28.0318 17.9326 29.5654C29.2455 32.636 44.8254 34.5244 62 34.5244C79.1746 34.5244 94.7545 32.636 106.067 29.5654C111.718 28.0318 116.353 26.1895 119.596 24.1084C121.031 23.1875 122.237 22.1889 123.133 21.1172V43.1719ZM62 0.867188C79.0667 0.867188 94.4867 2.74559 105.613 5.76562C111.183 7.27733 115.627 9.06229 118.659 11.0078C121.731 12.9788 123.133 14.966 123.133 16.8281C123.133 18.6904 121.731 20.6783 118.659 22.6494C115.627 24.5949 111.183 26.3789 105.613 27.8906C94.4867 30.9107 79.0668 32.79 62 32.79C44.9332 32.79 29.5133 30.9107 18.3867 27.8906C12.8173 26.3789 8.37259 24.5949 5.34082 22.6494C2.26927 20.6783 0.867188 18.6904 0.867188 16.8281C0.867385 14.966 2.26949 12.9788 5.34082 11.0078C8.37259 9.06229 12.8173 7.27733 18.3867 5.76562C29.5133 2.74559 44.9333 0.867188 62 0.867188Z" stroke="var(--stroke-0, black)" stroke-width="1.7346"/>
</g>
</svg>
